<svg width="28" height="28" fill="none" xmlns="http://www.w3.org/2000/svg"><g clip-path="url(#clip0_24_1945)" fill="#FF5112"><path d="M27.455 7.425L14.441.918a.985.985 0 00-.882 0L.545 7.425A.986.986 0 000 8.307V26.2c0 .544.441.986.986.986h3.253a.986.986 0 00.986-.986V10.919h17.55v15.282c0 .544.441.986.986.986h3.253A.986.986 0 0028 26.2V8.307a.986.986 0 00-.545-.882zm-1.427 17.79h-1.281V9.933a.986.986 0 00-.986-.986H4.239a.986.986 0 00-.986.986v15.282H1.972v-16.3L14 2.903l12.028 6.014v16.299z"/><path d="M20.507 12.497H14a.69.69 0 00-.69.69v5.817H7.493a.69.69 0 00-.69.69V26.2c0 .38.309.69.69.69h13.014a.69.69 0 00.69-.69V13.187a.69.69 0 00-.69-.69zM14.69 21.36l1.588 1.587-1.588 1.588V21.36zm-1.38 3.175l-1.587-1.588 1.587-1.587v3.175zm2.356-4.151h3.175l-1.587 1.587-1.588-1.587zm0-1.38l1.588-1.588 1.587 1.588h-3.175zm4.151-.976L18.23 16.44l1.587-1.587v3.175zm-2.563-2.564l-1.588-1.587h3.175l-1.587 1.587zm-.977.976l-1.587 1.588v-3.175l1.588 1.587zm-5.53 5.531l-1.588-1.587h3.175l-1.588 1.587zm-.976.976l-1.588 1.588V21.36l1.588 1.587zm.975.976l1.588 1.588H9.159l1.587-1.588zm6.508 0l1.587 1.588h-3.175l1.588-1.588zm.976-.976l1.587-1.587v3.175l-1.587-1.588z"/></g><defs><clipPath id="clip0_24_1945"><path fill="#fff" d="M0 0h28v28H0z"/></clipPath></defs></svg>