<svg width="27" height="28" fill="none" xmlns="http://www.w3.org/2000/svg"><path d="M17.425 8.37a.496.496 0 00-.467-.34h-2.444l-.752-2.32a.491.491 0 00-.934 0l-.752 2.32H9.633a.496.496 0 00-.467.34.487.487 0 00.181.55l1.972 1.436-.752 2.32a.491.491 0 00.757.551l1.971-1.436 1.972 1.436a.535.535 0 00.29.093.492.492 0 00.467-.644l-.753-2.32 1.972-1.436a.487.487 0 00.182-.55zm-3.019 1.4a.495.495 0 00-.182.552l.399 1.219-1.038-.757a.497.497 0 00-.58 0l-1.037.757.398-1.22a.494.494 0 00-.182-.55l-1.037-.757h1.283a.487.487 0 00.467-.34l.398-1.219.398 1.22a.487.487 0 00.467.339h1.284l-1.038.757z" fill="#FF5112"/><path d="M13.295 3.301a6.508 6.508 0 100 13.018c.167 0 .34-.01.506-.024h.05v-.005a6.505 6.505 0 00-.557-12.99zm4.823 9.203c-.002 0-.003 0-.004.002a5.502 5.502 0 01-4.352 2.806l-.005.004h-.005c-.307.03-.617.029-.924-.005a5.524 5.524 0 115.29-2.807z" fill="#FF5112"/><path d="M26.51 24.18l-1.849-2.866a2832.58 2832.58 0 01-3.962-6.13 8.6 8.6 0 01.339-.123 2.055 2.055 0 001.313-.885 2.053 2.053 0 00-.123-1.569 1.997 1.997 0 01-.182-.8c.122-.237.29-.447.496-.615a2.082 2.082 0 00.807-1.382 2.059 2.059 0 00-.807-1.376 2.01 2.01 0 01-.496-.62c.004-.277.066-.55.182-.801a2.044 2.044 0 00.123-1.563 2.065 2.065 0 00-1.313-.885 2.073 2.073 0 01-.733-.35 2.144 2.144 0 01-.177-.79 2.06 2.06 0 00-.565-1.476 2.065 2.065 0 00-1.558-.22 2.006 2.006 0 01-.811 0 1.992 1.992 0 01-.497-.625A2.07 2.07 0 0015.532.007a2.03 2.03 0 00-1.485.472c-.223.17-.48.293-.752.36a2.037 2.037 0 01-.752-.36 2.026 2.026 0 00-1.48-.472 2.064 2.064 0 00-1.17 1.097c-.122.238-.289.45-.492.624a2.038 2.038 0 01-.816 0 2.052 2.052 0 00-1.553.221 2.047 2.047 0 00-.57 1.48 1.95 1.95 0 01-.182.787c-.215.163-.46.28-.723.344a2.078 2.078 0 00-1.317.885 2.054 2.054 0 00.122 1.568c.116.252.178.524.182.801a2.011 2.011 0 01-.496.62 2.06 2.06 0 00-.806 1.376 2.082 2.082 0 00.806 1.382c.206.168.375.378.496.614-.004.277-.066.55-.182.802a2.044 2.044 0 00-.122 1.563 2.037 2.037 0 001.312.885c.113.044.231.083.34.128l-3.963 6.13L.08 24.18a.483.483 0 00.005.54.488.488 0 00.497.207l3.358-.624.816 3.323a.491.491 0 00.398.364.443.443 0 00.314-.05.484.484 0 00.178-.166l5.3-8.205c.039.01.073.034.112.044.08.02.163.03.246.03.451-.05.88-.224 1.239-.502.223-.17.48-.292.752-.359.273.067.529.189.752.36a2.013 2.013 0 001.49.471c.04-.01.074-.034.108-.044l5.3 8.205a.484.484 0 00.413.226.442.442 0 00.078-.01.492.492 0 00.398-.364l.817-3.323 3.357.624a.492.492 0 00.582-.476.483.483 0 00-.08-.27zm-21.07 2.1l-.655-2.66a.491.491 0 00-.565-.369l-2.694.501 1.229-1.902c1.229-1.908 2.461-3.815 3.697-5.723a.386.386 0 01.01.07 2.06 2.06 0 00.565 1.474c.47.277 1.03.356 1.558.221.268-.055.544-.055.812 0 .207.172.376.384.496.625.094.142.187.285.285.422L5.44 26.28zm10.018-7.724a.344.344 0 01-.147.098c-.138.03-.502-.191-.738-.344a2.493 2.493 0 00-1.278-.511 2.493 2.493 0 00-1.278.511c-.236.153-.6.379-.733.35a.407.407 0 01-.157-.109 3.186 3.186 0 01-.398-.555 2.472 2.472 0 00-.9-.988 1.597 1.597 0 00-.713-.143c-.213.004-.427.02-.639.05-.305.034-.717.083-.835-.01-.118-.094-.168-.512-.202-.817a2.47 2.47 0 00-.388-1.298.834.834 0 00-.192-.177l-.005-.005H6.85a3.098 3.098 0 00-.973-.476c-.29-.104-.684-.241-.753-.389-.068-.138.07-.526.168-.811.197-.418.27-.884.211-1.342a2.383 2.383 0 00-.762-1.096c-.216-.217-.516-.517-.516-.684 0-.167.3-.467.516-.683.353-.285.618-.666.762-1.096a2.425 2.425 0 00-.211-1.342c-.099-.286-.236-.674-.168-.817.07-.142.467-.28.758-.383a2.391 2.391 0 001.165-.659c.251-.385.388-.833.393-1.293.034-.305.079-.717.202-.816.122-.098.53-.049.835-.015.45.096.92.064 1.352-.093.386-.24.698-.581.9-.988.162-.266.388-.624.55-.659.138-.034.502.197.738.344.37.287.813.464 1.278.512a2.493 2.493 0 001.278-.512c.236-.147.595-.373.738-.344.162.035.388.393.55.659.202.407.514.749.9.988.433.157.901.19 1.352.093.305-.034.718-.083.836.01.118.094.167.512.201.816.006.46.14.91.389 1.298a2.47 2.47 0 001.174.664c.29.098.684.236.753.383.069.138-.07.526-.167.812a2.43 2.43 0 00-.212 1.342c.145.43.409.81.762 1.096.216.216.516.516.516.683 0 .167-.3.467-.516.684a2.382 2.382 0 00-.762 1.096c-.059.458.015.924.212 1.342.098.285.236.673.167.816-.07.143-.467.285-.753.384-.368.1-.713.27-1.017.501a1.53 1.53 0 00-.152.157 2.414 2.414 0 00-.394 1.293c-.034.305-.078.718-.201.816-.123.099-.531.05-.836.015a2.417 2.417 0 00-1.352.093 2.47 2.47 0 00-.9.989c-.113.2-.248.389-.403.56zm6.912 4.695a.492.492 0 00-.565.369l-.654 2.66-4.74-7.34c.1-.138.193-.28.286-.423a2 2 0 01.492-.625c.269-.055.546-.055.816 0a2.052 2.052 0 001.553-.22 2.044 2.044 0 00.57-1.476.41.41 0 01.01-.069c1.234 1.908 2.467 3.815 3.697 5.723l1.23 1.902-2.695-.501z" fill="#FF5112"/></svg>