<svg width="28" height="28" fill="none" xmlns="http://www.w3.org/2000/svg"><path d="M21.122 4.318l-2.727 2.727.254.263c-.18.146-.364.288-.54.414a4.26 4.26 0 01-.748.446.476.476 0 01-.164.02c-.16 0-.429-.04-.758-.09a7.736 7.736 0 00-1.171-.105 4.723 4.723 0 00-1.269.17 4.753 4.753 0 00-1.266-.17c-.446 0-.841.055-1.171.105-.33.05-.598.091-.758.09a.449.449 0 01-.162-.02c-.198-.081-.498-.262-.807-.487a11.88 11.88 0 01-.483-.374l.253-.262-2.727-2.727L0 11.442l2.727 2.726.798-.826 1.762 1.537c.05.295.142.574.25.838.069.168.146.33.224.482a1.794 1.794 0 00.009 1.878c.278.447.723.728 1.203.817a1.798 1.798 0 001.8 1.78c.023 0 .046-.004.07-.005a1.8 1.8 0 00.256.739c.34.547.93.85 1.53.849.059 0 .118-.006.178-.012a1.637 1.637 0 002.488 1.191l.818-.508c.16.104.33.195.507.27.33.14.688.224 1.059.225a2.08 2.08 0 001.207-.37 2.25 2.25 0 00.613-.67c.025 0 .046.005.073.006.17 0 .355-.026.54-.083a2.76 2.76 0 00.565-.254c.469-.264.75-.652.887-.985a2.02 2.02 0 00.071-.208c.114-.036.222-.08.32-.137.363-.209.599-.526.744-.844.146-.322.21-.655.211-.976 0-.032-.004-.063-.005-.094a2.26 2.26 0 00.631-.39 2.04 2.04 0 00.458-.569c.116-.215.193-.461.194-.731 0-.176-.036-.36-.115-.534-.025-.055-.061-.106-.094-.157a6.44 6.44 0 00.395-.828c.087-.229.16-.468.201-.72l1.837-1.602.861.892L28 11.441l-6.878-7.124zM7.588 17.524l-.032.02a.486.486 0 01-.674-.158.488.488 0 01.157-.673l1.08-.671a.486.486 0 01.673.157l.556-.345-.556.346a.483.483 0 01-.043.57l-.928.577a1.82 1.82 0 00-.233.176zM9.03 19.29a.488.488 0 01-.631-.727l.927-.578a1.79 1.79 0 00.233-.176l.034-.02a.487.487 0 01.747.414.487.487 0 01-.232.417l-1.078.67zm2.934.913l-1.079.67a.488.488 0 11-.517-.83l1.08-.671a.486.486 0 01.747.415c0 .164-.08.321-.231.416zm1.672 1.094a.328.328 0 01-.106.45l-.926.576a.327.327 0 11-.346-.556l.927-.576a.325.325 0 01.45.105l.558-.345-.556.346zm7.204-4.067a.84.84 0 01-.294.296.868.868 0 01-.45.134.62.62 0 00-.157.023 1.804 1.804 0 01-.28-.085 2.924 2.924 0 01-.739-.444 3.467 3.467 0 01-.219-.192l-.055-.054-.012-.013-.002-.002a.49.49 0 10-.723.666c.016.017.263.286.668.563.202.14.445.28.723.39.065.025.132.049.201.07.02.043.043.084.072.123.003.004.03.088.027.197.003.18-.063.418-.157.548a.437.437 0 01-.14.136.349.349 0 01-.182.044h-.031c-.019-.002-.037.001-.055.002h-.001c-.426.002-.823-.18-1.116-.38a2.804 2.804 0 01-.428-.36l-.019-.02-.003-.004a.49.49 0 00-.742.645c.019.021.246.282.64.551.26.176.599.358 1.001.462-.004.012-.007.024-.012.035a.711.711 0 01-.327.354 1.495 1.495 0 01-.3.138.492.492 0 01-.156.025 1.675 1.675 0 01-.318-.046.565.565 0 00-.087-.01l-.033-.013a2.823 2.823 0 01-.507-.333 4.53 4.53 0 01-.178-.15l-.048-.043-.011-.01-.003-.002a.492.492 0 00-.679.71c.01.009.217.207.507.415.052.037.109.074.166.11a.946.946 0 01-.246.274.77.77 0 01-.456.133c-.164 0-.357-.04-.55-.122-.064-.026-.127-.064-.19-.1a1.62 1.62 0 00-.19-1.287 1.635 1.635 0 00-1.246-.764l.003-.054a1.797 1.797 0 00-1.8-1.798c-.024 0-.047.004-.07.005a1.792 1.792 0 00-1.46-1.555 1.8 1.8 0 00-2.748-1.51l-.632.393c-.015-.035-.034-.068-.048-.103-.11-.263-.179-.522-.186-.7l-.015-.277-2.11-1.843 4.001-4.145c.205.168.415.334.63.49.357.257.71.483 1.071.635.232.096.458.12.665.12.332-.001.636-.058.953-.104.02-.004.042-.006.063-.009a10.61 10.61 0 00-1.138 1.155c-.27.318-.5.618-.68.863-.179.243-.317.439-.377.516a2.154 2.154 0 00-.429 1.316c.001.433.116.883.414 1.263.149.188.346.353.582.465.235.113.504.17.785.17.348 0 .713-.085 1.1-.247 1.213-.513 2.463-.855 3.404-1.066a21.832 21.832 0 011.276-.247l4.116 3.55h.002l.001.002a.27.27 0 01-.036.105zm.476-2.99l-.014.277a2.101 2.101 0 01-.152.613c-.046.12-.102.243-.16.363l-3.605-3.108a.658.658 0 00-.51-.154c-.033.007-2.677.338-5.308 1.447-.262.111-.459.145-.59.144a.491.491 0 01-.221-.042.368.368 0 01-.17-.175.829.829 0 01-.08-.37c-.003-.204.07-.412.152-.51.102-.133.226-.312.398-.544.255-.345.6-.792 1.013-1.226.412-.435.891-.855 1.393-1.15a3.405 3.405 0 011.806-.501c.337 0 .661.041.977.089.317.047.622.103.953.104.206 0 .43-.024.662-.118h.003c.36-.153.714-.38 1.07-.637.215-.154.426-.322.63-.489l3.939 4.08-2.186 1.907z" fill="#FF5112"/></svg>