<svg width="28" height="28" fill="none" xmlns="http://www.w3.org/2000/svg"><path d="M23.13 1.217a1.217 1.217 0 112.435 0v1.218h1.218a1.217 1.217 0 010 2.435h-1.218v1.217a1.217 1.217 0 01-2.434 0V4.87h-1.218a1.217 1.217 0 110-2.435h1.218V1.217zm1.454 8.613c.618-.264 1.343.02 1.55.66A13.393 13.393 0 013.926 24.082 13.391 13.391 0 0117.5 1.862c.64.207.925.932.662 1.55-.264.619-.98.904-1.623.71a10.948 10.948 0 107.337 7.331c-.194-.643.09-1.36.709-1.623z" fill="#FF5112"/><path d="M16.641 18.41c-.504 0-.948-.108-1.333-.322a2.338 2.338 0 01-.904-.904c-.214-.385-.322-.83-.322-1.333v-2.292c0-.504.107-.949.322-1.334.217-.385.518-.685.903-.899.386-.217.83-.326 1.334-.326.504 0 .947.109 1.329.326.385.214.687.514.904.899.217.385.326.83.326 1.334v2.292c0 .504-.109.948-.326 1.333a2.339 2.339 0 01-.904.904c-.382.214-.825.321-1.329.321zm0-1.132a1.332 1.332 0 001.166-.662c.119-.204.178-.431.178-.681V13.47c0-.254-.06-.481-.178-.682a1.313 1.313 0 00-.484-.484 1.305 1.305 0 00-.682-.183c-.25 0-.477.061-.681.183a1.315 1.315 0 00-.662 1.166v2.465a1.332 1.332 0 00.662 1.165c.204.119.43.178.681.178zM8 18.251v-1.037l3.043-2.712c.237-.21.402-.41.494-.598a1.23 1.23 0 00.138-.543c0-.237-.051-.448-.153-.632a1.15 1.15 0 00-1.042-.608c-.247 0-.466.058-.657.173a1.199 1.199 0 00-.44.45c-.105.187-.155.39-.148.607H8.01c0-.474.105-.887.316-1.24.214-.352.507-.625.88-.82.375-.194.808-.291 1.298-.291.455 0 .863.102 1.225.306.363.201.647.481.855.84.207.356.311.766.311 1.23 0 .34-.046.624-.138.854-.092.231-.23.443-.415.638-.181.194-.407.41-.677.647l-2.158 1.911-.11-.296h3.498v1.121H8z" fill="#FF5112"/></svg>