<svg width="22" height="22" fill="none" xmlns="http://www.w3.org/2000/svg"><path fill-rule="evenodd" clip-rule="evenodd" d="M18.334 11a.917.917 0 00-.917-.916H4.583a.917.917 0 100 1.833h12.834c.506 0 .916-.41.916-.917z" fill="#FF5112"/><path fill-rule="evenodd" clip-rule="evenodd" d="M3.935 10.352a.917.917 0 000 1.296l5.5 5.5a.917.917 0 001.297-1.296l-5.5-5.5a.917.917 0 00-1.297 0z" fill="#FF5112"/><path fill-rule="evenodd" clip-rule="evenodd" d="M10.732 4.852a.917.917 0 00-1.297 0l-5.5 5.5a.917.917 0 101.297 1.296l5.5-5.5a.917.917 0 000-1.296z" fill="#FF5112"/></svg>