<svg xmlns="http://www.w3.org/2000/svg" width="24" height="24"><path fill="#FF5112" d="M14.667 12a2.667 2.667 0 11-5.334 0 2.667 2.667 0 015.334 0zm3.846-3.232c.038.843.046 1.096.046 3.232s-.008 2.389-.046 3.233c-.1 2.15-1.109 3.181-3.279 3.279-.844.038-1.097.047-3.234.047-2.136 0-2.39-.008-3.232-.046-2.174-.099-3.181-1.132-3.279-3.279-.039-.845-.048-1.098-.048-3.234s.009-2.389.047-3.232c.099-2.152 1.109-3.181 3.279-3.279.844-.039 1.097-.047 3.233-.047s2.39.008 3.233.046c2.168.099 3.18 1.128 3.28 3.28zM16.108 12a4.108 4.108 0 10-8.217 0 4.108 4.108 0 008.217 0zm1.122-4.27a.96.96 0 10-1.92 0 .96.96 0 001.92 0zM24 0v24H0V0h24zm-4 12c0-2.172-.009-2.445-.048-3.298-.131-2.902-1.745-4.52-4.653-4.653C14.445 4.009 14.173 4 12 4s-2.444.009-3.298.048c-2.906.133-4.52 1.745-4.654 4.653C4.009 9.555 4 9.828 4 12c0 2.173.009 2.445.048 3.298.134 2.906 1.746 4.521 4.654 4.654.854.039 1.125.048 3.298.048s2.445-.009 3.299-.048c2.902-.133 4.522-1.745 4.653-4.654.039-.853.048-1.125.048-3.298z"/></svg>