<svg width="320" height="82" fill="none" xmlns="http://www.w3.org/2000/svg"><path fill-rule="evenodd" clip-rule="evenodd" d="M18.163 50.834L1.651 34.381v41.162L18.105 59.09v-8.256h.058zm1.652-.649v9.613L0 79.612v-49.3l19.815 19.873zm8.551 29.427L79.848 28.13V4.777L5.072 79.612h23.294zm.707 1.652L81.56 28.778V.767L1.062 81.264h28.011zM79.848 35.56L63.395 52.013v27.6h16.453V35.56zm1.71-4.069v49.773H61.745V51.306L81.559 31.49zM26.007 51.247L37.683 39.57 1.71 3.597v23.294l24.297 24.356zm0 2.359L.059 27.658V0h.413l39.57 39.57-14.035 14.036z" fill="#FF5112"/><path d="M127.419 6.281l-6.149 14.262c-.768 1.794-1.537 3.075-2.135 3.929-.597.854-1.366 1.451-2.22 1.793-.854.342-1.964.598-3.502.769h-.256a9.463 9.463 0 01-.427-2.05l.171-.256a26.75 26.75 0 002.733-.513c.683-.17 1.196-.512 1.623-.854.427-.341.854-.939 1.195-1.622l-7.857-15.543h2.818l.684 1.878 5.295 10.847h.341l4.441-11.017.598-1.708h2.647v.085zm5.808 15.543l.085 5.039h-2.391l.085-4.783-.085-11.187h2.391l-.085 10.931zm2.818-3.501c2.306 2.818 4.697 5.465 7.259 7.942l-.085.342c-.683.256-1.452.341-2.306.512l-.427-.17c-2.733-3.075-5.124-5.894-7.088-8.456v-.17l5.551-6.064 1.024-1.452h2.819l-6.747 7.516zm15.799 1.11c2.135-.342 3.16-1.623 3.16-3.672 0-1.025-.256-1.794-.854-2.22-.598-.513-1.452-.77-2.562-.77h-2.477v6.662h2.733zm.427-8.626c1.708 0 2.989.427 3.929 1.196.939.854 1.366 1.964 1.366 3.501 0 1.794-.598 3.246-1.708 4.185-1.11 1.025-2.733 1.537-4.697 1.537h-1.964v.513l.085 5.038h-2.391l.085-4.782-.085-11.188h5.38zm15.287 9.907l-2.647-7.6h-.171l-2.904 7.6h5.722zm4.27 6.063h-2.391l-.427-1.708-.854-2.39h-7.259l-.854 2.22-.427 1.878h-2.391l6.149-15.97h2.732l5.722 15.97zm5.808-4.953l.085 5.039h-2.391l.085-4.783-.085-11.187h2.391l-.085 10.931zm.854-17.251c.427 0 .768.085.939.342.256.256.342.597.342.939 0 .512-.086.854-.342 1.11a1.414 1.414 0 01-1.025.427c-.427 0-.768-.085-1.025-.341-.256-.257-.341-.598-.341-1.025 0-.427.171-.769.427-1.025.171-.256.598-.427 1.025-.427zm-3.502 0c.427 0 .769.085.94.342.256.256.341.597.341.939 0 .512-.171.854-.427 1.11a1.414 1.414 0 01-1.025.427c-.427 0-.768-.085-1.024-.341-.257-.257-.342-.598-.342-1.025 0-.427.171-.769.427-1.025.256-.256.683-.427 1.11-.427zm22.034 17.251l.085 4.953h-2.391l.085-4.782v-2.22l-8.711.085-.085 1.964.085 4.953h-2.391l.171-4.782-.171-11.188h2.477l-.086 6.833 4.356.085 4.355-.085-.085-6.833h2.391l-.085 11.017zm11.7-11.188c1.793 0 3.33.342 4.611 1.11l-.427 2.221-.256.086c-.512-.427-1.195-.769-1.879-1.025a6.515 6.515 0 00-2.305-.427c-1.623 0-2.819.512-3.587 1.537-.854 1.025-1.281 2.562-1.281 4.526 0 2.05.427 3.587 1.281 4.612.854 1.11 2.049 1.623 3.587 1.623.768 0 1.537-.171 2.305-.427a7.279 7.279 0 002.135-1.11l.257.085-.257 2.22c-1.451.769-2.989 1.196-4.611 1.196-2.392 0-4.185-.683-5.466-2.135-1.281-1.367-1.879-3.416-1.879-5.978 0-2.648.683-4.697 1.964-6.064 1.452-1.28 3.331-2.05 5.808-2.05zm14.347 14.348c1.11-.17 1.964-.427 2.477-1.025.598-.512.854-1.28.854-2.135 0-.94-.256-1.623-.854-2.135-.598-.512-1.367-.768-2.477-.683h-2.818v2.733l.085 3.16 2.733.085zm.854-7.772c1.623 0 2.904.342 3.758 1.11.854.77 1.281 1.794 1.281 3.16 0 1.709-.598 2.99-1.794 3.844-1.195.939-2.903 1.366-5.038 1.366h-4.27l.085-4.782-.085-11.274h2.476l-.085 6.491h3.672v.085zm11.615 4.612l.085 5.039h-2.391l.085-4.783-.085-11.187h2.391l-.085 10.931zm2.903-3.501c2.306 2.818 4.698 5.465 7.26 7.942l-.086.342c-.683.256-1.452.341-2.306.512l-.427-.17c-2.733-3.075-5.124-5.894-7.088-8.456v-.17l5.551-6.064 1.025-1.452h2.818l-6.747 7.516zm18.447 2.391l-2.647-7.6h-.171l-2.904 7.6h5.722zm4.27 6.063h-2.391l-.427-1.708-.854-2.39h-7.259l-.854 2.22-.427 1.878h-2.391l6.149-15.97h2.732l5.722 15.97zM132.031 53.081h-2.306l-.427-6.234-1.11-10.248h-.256l-5.722 14.09h-2.05l-5.466-14.09h-.256l-1.11 9.992-.512 6.49h-2.221L112.73 32.5h2.989l1.025 3.16 4.441 11.7h.256l4.612-11.87 1.11-2.99h2.904l1.964 20.582zm15.202-2.049l.256.17-.256 1.88h-9.736l.085-4.783-.085-11.188h9.821l.171.17-.256 1.88-4.014-.171-3.331.085v4.783l3.16.085 2.733-.085.171.17-.171 1.88-2.904-.086-2.989.085-.085 2.136.085 3.074h3.075l4.27-.085zm10.504.256c1.196-.086 2.05-.427 2.647-.94.598-.512.94-1.28.94-2.135 0-.94-.256-1.622-.854-2.05-.598-.512-1.452-.683-2.562-.683h-2.989v2.563l.085 3.16 2.733.085zm.854-7.601c1.708 0 2.989.342 3.929 1.11.854.769 1.366 1.794 1.366 3.16 0 1.623-.598 2.904-1.879 3.758-1.196.94-2.989 1.366-5.209 1.366h-4.356l.086-4.782-.086-11.273h10.59l.085.256-.17 1.793-4.185-.085h-3.929v4.612h3.758v.085zm19.813 4.355l.086 5.04h-2.477l.085-4.783-.085-9.31h-4.185l-.171 1.282c-.341 3.245-.683 5.807-1.11 7.6-.427 1.794-.939 3.16-1.537 4.014-.598.855-1.452 1.367-2.477 1.538l-.683.085-.512-2.05c.854-.256 1.537-.768 2.049-1.537.513-.768.94-1.879 1.196-3.416.342-1.537.598-3.757.854-6.661l.256-2.733v-.085h8.711v11.016zm15.8 2.99l.17.17-.17 1.88h-9.736l.085-4.783-.085-11.188h9.821l.085.17-.17 1.88-4.014-.171-3.331.085-.085 4.783 3.245.085 2.733-.085.171.17-.171 1.88-2.989-.086-2.989.085v5.21h3.159l4.271-.085zm9.223.341c1.366 0 2.476-.256 3.16-.683.768-.512 1.11-1.196 1.11-2.135 0-.769-.256-1.367-.769-1.794-.512-.427-1.281-.683-2.306-.854h-3.159v2.22l.085 3.16c.598 0 1.281.086 1.879.086zm3.245-10.163c0-.768-.256-1.366-.769-1.708-.512-.341-1.366-.512-2.476-.512h-1.964v4.953l2.818.086c.768-.171 1.366-.513 1.793-.94.427-.427.598-1.025.598-1.879zm0 3.587c2.391.513 3.587 1.708 3.587 3.758 0 1.537-.598 2.733-1.793 3.501-1.196.769-2.99 1.196-5.295 1.196-1.367 0-2.733 0-4.014-.085l.085-4.783-.085-11.188h5.038c1.623 0 2.819.342 3.758 1.025.854.684 1.367 1.623 1.367 2.904 0 .94-.257 1.708-.684 2.306a6.694 6.694 0 01-1.964 1.366zm15.714 2.221l-2.648-7.601h-.17l-2.904 7.6h5.722zm4.355 6.063h-2.391l-.427-1.708-.854-2.391h-7.259l-.854 2.22-.427 1.88h-2.306l6.149-15.97h2.733l5.636 15.97zm29.72 0h-2.306l-.512-6.234-1.025-10.248h-.256l-5.722 14.09h-2.135l-5.38-14.09h-.257l-1.11 9.992-.512 6.49h-2.221L237.16 32.5h2.904l1.11 3.16 4.441 11.7h.171l4.697-11.87 1.11-2.99h2.819l2.049 20.582zm13.238-6.063l-2.648-7.601h-.171l-2.903 7.6h5.722zm4.27 6.063h-2.392l-.427-1.708-.854-2.391h-7.259l-.854 2.22-.427 1.88h-2.391l6.149-15.97h2.733l5.722 15.97zm8.625-7.43c2.135-.341 3.16-1.622 3.16-3.672 0-1.025-.256-1.794-.854-2.22-.598-.513-1.452-.77-2.562-.77h-2.477v6.662h2.733zm.427-8.625c1.708 0 2.989.427 3.929 1.195.939.854 1.366 1.965 1.366 3.502 0 1.793-.598 3.245-1.708 4.184-1.11 1.025-2.733 1.538-4.697 1.538h-1.964v.512l.085 5.039h-2.391l.085-4.783-.085-11.187h5.38zm11.359 11.016l.085 5.04h-2.391l.085-4.783-.085-11.188h2.391l-.085 10.931zm2.903-3.501c2.306 2.818 4.697 5.466 7.259 7.942l-.085.427c-.683.257-1.452.342-2.306.513l-.427-.171c-2.733-3.075-5.124-5.893-7.088-8.455v-.17l5.551-6.064 1.025-1.452h2.818l-6.747 7.43zm18.447 2.477l-2.647-7.601h-.171l-2.904 7.6h5.722zM320 53.08h-2.391l-.427-1.708-.854-2.391h-7.259l-.854 2.22-.427 1.88h-2.392l6.149-15.97h2.733L320 53.081zM116.403 74.005l.085 2.562h-1.025V69.05h-3.843v7.516h-1.025l.086-2.477-.086-5.893h5.893l-.085 5.808zm5.294-1.196c.513-.085.94-.342 1.196-.683.256-.342.427-.854.427-1.367 0-1.11-.598-1.622-1.708-1.708h-1.281v3.673l1.366.085zm.171-4.612c.854 0 1.452.171 1.879.598.427.427.683 1.025.683 1.793 0 .94-.256 1.709-.854 2.22-.512.513-1.281.77-2.306.77h-1.024v.341l.085 2.648h-1.025l.086-2.562-.086-5.893 2.562.085zm7.43.769c-1.708 0-2.647 1.11-2.647 3.416 0 1.196.171 2.05.598 2.647.427.598 1.024.854 1.878.854 1.708 0 2.648-1.11 2.648-3.416 0-1.195-.171-2.05-.598-2.647-.342-.598-1.025-.854-1.879-.854zm.086-.854c1.11 0 2.049.342 2.647 1.025.598.683.939 1.708.939 3.074 0 1.452-.341 2.562-1.024 3.33-.684.77-1.623 1.196-2.819 1.196-1.11 0-2.049-.341-2.647-1.11-.598-.768-.939-1.793-.939-3.16 0-1.366.341-2.476.939-3.245.769-.683 1.708-1.11 2.904-1.11zm9.906 5.978v-5.039h-2.135l-.085.769c-.086 1.196-.256 2.22-.342 2.989-.171.769-.256 1.366-.512 1.879-.171.512-.427.854-.769 1.11h3.758l.085-1.708zm2.135 4.1l-.768.085-.171-1.623h-5.807l-.171 1.537-.854.086v-2.477h.683a2.6 2.6 0 00.854-1.025c.256-.427.427-1.025.512-1.879.171-.768.257-1.879.342-3.33l.171-1.367h4.099v7.601h1.11v2.391zm5.893-4.783l-1.366-4.1h-.086l-1.537 4.1h2.989zm2.05 3.16h-1.111l-.17-.854-.513-1.452h-3.587l-.512 1.366-.171.854h-1.025l3.075-8.37h1.195l2.819 8.456zm9.565.085a49.725 49.725 0 01-3.331-4.44v-.086l2.562-3.16.513-.769h1.11l-3.16 3.929c1.025 1.452 2.22 2.903 3.416 4.27v.17a3.07 3.07 0 01-.939.171l-.171-.085zm-4.527-2.562v-5.893h1.025v8.455h-1.025V74.09zm-3.586 2.647c-.342-.085-.684-.17-.94-.17v-.171a57.34 57.34 0 003.416-4.27l-3.16-3.929h1.111l.512.769 2.647 3.16v.085c-.939 1.367-2.049 2.818-3.33 4.441l-.256.085zm15.542-.854c.598-.085 1.111-.256 1.367-.512.341-.342.427-.683.427-1.196 0-.512-.171-.854-.427-1.195a2.1 2.1 0 00-1.281-.427h-1.537v3.245l1.451.085zm.427-4.099c.854 0 1.452.17 1.879.598.427.341.683.94.683 1.623 0 .854-.256 1.537-.854 1.964-.597.427-1.451.683-2.476.683h-2.05l.086-2.562-.086-5.893h5.039l.085.086-.085.768h-4.014v2.733h1.793zm10.334-3.587l-2.477 5.808c-.341.683-.597 1.28-.854 1.622a2.663 2.663 0 01-.939.769c-.342.17-.854.256-1.452.341h-.085c-.086-.256-.171-.512-.171-.854l.085-.085c.513-.085.854-.17 1.111-.256.256-.086.512-.171.683-.342a2.34 2.34 0 00.512-.683l-3.245-6.32h1.11l.256.769 2.135 4.44h.171l1.794-4.44.256-.683h1.11v-.086zm5.466 5.893v-5.039h-2.135l-.086.769c-.085 1.196-.256 2.22-.341 2.989-.171.769-.256 1.366-.513 1.879-.17.512-.427.854-.768 1.11h3.757l.086-1.708zm2.135 4.1l-.769.085-.17-1.623h-5.808l-.171 1.537-.854.086v-2.477h.684c.341-.256.597-.512.854-1.025.256-.427.427-1.025.512-1.879.171-.768.256-1.879.342-3.33l.17-1.367h4.014v7.601h1.111v2.391h.085zm2.989-4.185l.085 2.562h-1.11l.085-2.477-.085-5.893h1.11l-.085 5.808zm4.868 1.793c.683 0 1.281-.17 1.622-.427.342-.256.598-.683.598-1.196 0-.854-.512-1.366-1.623-1.451h-1.622v2.989c.427.085.683.085 1.025.085zm1.708-5.466c0-.427-.086-.768-.342-1.024a2.21 2.21 0 00-1.196-.342h-1.024v2.818h1.451c.684-.085 1.111-.598 1.111-1.452zm-.171 1.88c1.196.255 1.793.939 1.793 2.049 0 .768-.256 1.366-.854 1.793-.597.427-1.451.598-2.562.598-.768 0-1.366 0-1.879-.085l.086-2.562-.086-5.893h2.306c.769 0 1.367.17 1.794.512.427.342.598.854.598 1.538 0 .512-.086.853-.342 1.195-.171.427-.512.683-.854.854zm8.626 3.586l-.086.769h-4.697l.086-2.477-.086-5.893h4.697l.086.086-.086.854-1.964-.086-1.623.086-.085 2.733h2.989l.085.085-.085.769h-2.989v2.989h3.672l.086.085zm7.088-1.793v2.647h-1.025v-7.601h-2.135l-.085.769a62.05 62.05 0 01-.513 4.014c-.17.94-.427 1.622-.768 2.135-.256.427-.683.768-1.11.854h-.342l-.171-.854c.427-.171.769-.427 1.025-.854.256-.427.427-1.025.598-1.88.171-.853.256-2.049.427-3.586l.171-1.366h4.099l-.171 5.722zm5.209 1.793c.598-.085 1.025-.256 1.281-.512.342-.342.427-.684.427-1.196 0-.512-.17-.94-.427-1.196-.256-.256-.683-.427-1.281-.427h-1.451v3.331h1.451zm.427-4.1c.769 0 1.452.172 1.794.599.427.341.598.939.598 1.622 0 .854-.257 1.537-.854 1.964-.598.427-1.367.684-2.392.684h-1.964l.086-2.562-.086-5.893h1.025v3.501h1.793v.086zm10.761 2.307v2.562h-1.025l.086-2.477-.086-1.281h-4.441v1.196l.086 2.562h-1.11l.085-2.477-.085-5.893h1.11l-.086 3.758h4.441v-3.758h1.025v5.808zm2.904.085l-.086-5.807 1.025-.086v6.747h.086l4.27-6.747h1.11v8.37h-1.025v-6.662h-.085l-4.27 6.662h-1.111l.086-2.477zm12.383-1.879l2.818 4.356h-1.281l-.341-.684-1.965-2.818-1.964 2.904-.341.598h-1.111l2.819-4.185-2.733-4.185h1.281l.341.683 1.794 2.648 1.793-2.648.342-.683h1.195l-2.647 4.014zm15.116 4.356h-.939l-.257-2.562-.427-4.1h-.085l-2.306 5.722h-.854l-2.22-5.722h-.086l-.512 4.1-.171 2.562h-.939l.939-8.37h1.196l.427 1.281 1.793 4.783h.086l1.878-4.868.427-1.196h1.196l.854 8.37zm6.32-3.16l-1.367-4.1h-.085l-1.537 4.1h2.989zm2.049 3.16h-1.11l-.171-.854-.512-1.452h-3.587l-.512 1.366-.171.854h-1.025l3.075-8.37h1.195l2.818 8.456zm5.637-8.284l-.086.854-1.451-.086h-.854l-.086 4.954.086 2.562h-1.111l.086-2.477-.086-5.039h-.854l-1.451.086-.086-.086.086-.854h5.721l.086.086zm6.32 7.515l-.086.769h-4.697l.085-2.477-.085-5.893h4.697l.086.086-.086.854-1.964-.086-1.708.086v2.733h2.989l.085.085-.085.769H273.2v2.989h3.672l.086.085zm4.526-2.989c.512-.085.939-.342 1.196-.683.256-.342.427-.854.427-1.367 0-1.11-.598-1.622-1.708-1.708h-1.281v3.673l1.366.085zm.171-4.612c.854 0 1.452.171 1.879.598.427.427.683 1.025.683 1.793 0 .94-.256 1.709-.854 2.22-.513.513-1.281.77-2.306.77h-1.025v.341l.086 2.648h-1.025l.085-2.562-.085-5.893 2.562.085zm5.38 5.808l.086 2.562h-1.025v-8.37h1.025l-.086 5.808zm6.832-.598l-1.366-4.1h-.086l-1.537 4.1h2.989zm2.05 3.16h-1.111l-.17-.854-.513-1.452h-3.587l-.512 1.366-.171.854h-1.025l3.075-8.37h1.195l2.819 8.456zm6.661-2.562v2.647h-1.025v-7.601h-2.135l-.085.769a62.05 62.05 0 01-.513 4.014c-.17.94-.427 1.622-.768 2.135-.256.427-.683.768-1.11.854h-.342l-.171-.854c.427-.171.769-.427 1.025-.854.256-.427.427-1.025.598-1.88.171-.853.256-2.049.427-3.586l.171-1.366h4.099l-.171 5.722zm3.843 0l.086 2.562h-1.111l.086-2.477-.086-5.893h1.111l-.086 5.808zm4.868 1.793c.683 0 1.281-.17 1.623-.427.341-.256.598-.683.598-1.196 0-.854-.513-1.366-1.623-1.451h-1.623v2.989c.427.085.769.085 1.025.085zm1.708-5.466c0-.427-.085-.768-.341-1.024a2.215 2.215 0 00-1.196-.342h-1.025v2.818h1.452c.683-.085 1.11-.598 1.11-1.452zm-.171 1.88c1.196.255 1.794.939 1.794 2.049 0 .768-.256 1.366-.854 1.793-.598.427-1.452.598-2.562.598-.769 0-1.367 0-1.879-.085l.085-2.562-.085-5.893h2.306c.768 0 1.366.17 1.793.512.427.342.598.854.598 1.538 0 .512-.085.853-.342 1.195-.17.427-.512.683-.854.854z" fill="#fff"/></svg>