<svg width="254" height="254" fill="none" xmlns="http://www.w3.org/2000/svg"><path d="M218.591 127.484l17.218 1.465-.429 5.045c-.018.208-.05.538-.096.992-.047.453-.12.885-.219 1.294-.291 1.252-.866 2.259-1.726 3.02-.86.77-1.917 1.307-3.172 1.609-1.246.304-2.602.393-4.069.269-1.475-.126-2.805-.444-3.99-.954-1.177-.51-2.124-1.216-2.842-2.12-.711-.896-1.104-1.985-1.179-3.268-.022-.411-.02-.853.004-1.325.031-.463.055-.79.071-.981l.429-5.046zm.913 1.162l-.337 3.969c-.033.383-.053.767-.062 1.151-.009.393-.001.723.024.99.095 1.148.452 2.094 1.072 2.837.626.752 1.452 1.328 2.478 1.728 1.033.409 2.203.669 3.51.78 1.308.112 2.501.053 3.58-.177 1.087-.22 1.999-.649 2.735-1.285.744-.627 1.26-1.498 1.547-2.614.07-.259.134-.587.192-.983.058-.397.102-.774.133-1.133l.337-3.97-15.209-1.293zm-2.54 15.364l16.695 4.457-1.64 6.144a5.826 5.826 0 01-.156.493 4.36 4.36 0 01-.222.549c-.338.771-.817 1.388-1.438 1.852a4.61 4.61 0 01-2.104.904c-.782.139-1.591.097-2.426-.126a5.623 5.623 0 01-2.177-1.103 4.732 4.732 0 01-1.374-1.832c-.299-.709-.403-1.482-.312-2.319.024-.217.052-.413.082-.587.03-.174.066-.342.11-.504l1.38-5.171-6.678-1.783.26-.974zm7.392 3.017l-1.381 5.171a6.875 6.875 0 00-.179 1.045c-.048.674.064 1.279.335 1.815a3.835 3.835 0 001.137 1.372 4.855 4.855 0 001.684.81 4.772 4.772 0 001.852.134 3.81 3.81 0 001.68-.62c.502-.329.901-.798 1.196-1.407.088-.175.161-.355.218-.538a5.55 5.55 0 00.147-.458l1.38-5.17-8.069-2.154zm-11.683 11.966l15.813 6.968-3.871 8.785-.923-.407 3.465-7.862-6.523-2.875-2.884 6.545-.922-.406 2.884-6.545-7.445-3.281.406-.922zm-13.814 23.712c1.066-1.349 2.258-2.237 3.575-2.665 1.312-.421 2.677-.438 4.095-.051 1.418.387 2.817 1.126 4.197 2.217 1.381 1.092 2.423 2.283 3.126 3.573.704 1.291 1.002 2.623.895 3.996-.112 1.38-.702 2.745-1.769 4.094-1.25 1.582-2.671 2.528-4.264 2.84-1.586.316-3.2.1-4.843-.647l.467-.978c1.437.647 2.837.836 4.201.569 1.366-.257 2.582-1.06 3.649-2.409.918-1.161 1.415-2.338 1.492-3.532.072-1.187-.212-2.35-.852-3.488-.634-1.134-1.558-2.19-2.771-3.17-1.214-.981-2.446-1.648-3.694-2.003-1.249-.356-2.451-.357-3.606-.006-1.154.363-2.19 1.124-3.108 2.285-1.066 1.35-1.567 2.718-1.502 4.106.061 1.394.568 2.713 1.522 3.957l-.843.679c-1.106-1.425-1.692-2.949-1.756-4.57-.058-1.616.538-3.215 1.789-4.797zm-5.662 7.615l6.729 17.114-.809.715-16.154-8.787.81-.715 15.725 8.556-.539.477-6.571-16.645.809-.715zm1.173 4.953l.636.719-6.619 5.848-.636-.72 6.619-5.847zm-18.051 8.577l8.634 13.792 5.37-3.361.535.854-11.595 7.259-.535-.855 5.37-3.362-8.634-13.792.855-.535zm-7.153 4.551l.803 18.371-.998.413-12.422-13.558.998-.413 12.092 13.201-.665.276-.806-17.876.998-.414zm-.5 5.065l.367.887-8.16 3.38-.367-.887 8.16-3.38zm-15.443 1.146l4.203 16.762-.978.245-3.957-15.784-8.334 2.09-.246-.978 9.312-2.335zm-17.77 3.01c1.714-.139 3.177.128 4.387.8 1.203.673 2.146 1.66 2.829 2.961.684 1.301 1.096 2.828 1.239 4.583.142 1.754-.019 3.328-.484 4.722-.464 1.394-1.236 2.52-2.314 3.379-1.086.858-2.486 1.357-4.201 1.496-1.714.139-3.172-.127-4.375-.8-1.21-.673-2.157-1.659-2.84-2.96-.684-1.301-1.097-2.829-1.239-4.583-.143-1.754.018-3.328.483-4.723.465-1.394 1.24-2.52 2.326-3.379 1.079-.858 2.475-1.357 4.189-1.496zm.082 1.005c-1.475.12-2.676.558-3.602 1.316-.933.766-1.598 1.767-1.995 3.003-.398 1.236-.533 2.632-.407 4.187.126 1.555.485 2.91 1.077 4.066.592 1.164 1.41 2.044 2.454 2.642 1.035.598 2.291.837 3.766.718 1.475-.12 2.676-.559 3.601-1.316.918-.757 1.575-1.757 1.972-3.001.397-1.237.541-2.633.43-4.189-.11-1.556-.461-2.912-1.052-4.068-.592-1.156-1.41-2.037-2.454-2.642-1.052-.597-2.315-.836-3.79-.716zm-18.607-1.133c1.28.149 2.375.497 3.286 1.046a6.585 6.585 0 012.193 2.127c.551.87.927 1.868 1.126 2.994.19 1.134.209 2.356.057 3.667-.203 1.748-.668 3.257-1.395 4.525-.728 1.277-1.704 2.227-2.928 2.85-1.233.63-2.704.845-4.413.647-1.637-.19-2.955-.734-3.954-1.631-1-.89-1.66-1.969-1.979-3.238l1.024-.292a5.404 5.404 0 001.717 2.797c.855.751 1.958 1.206 3.309 1.363 1.47.17 2.733-.025 3.789-.587 1.047-.555 1.886-1.4 2.517-2.535.631-1.134 1.045-2.476 1.24-4.023.196-1.548.117-2.947-.237-4.196-.354-1.249-.985-2.273-1.891-3.07-.914-.791-2.107-1.272-3.577-1.443-1.47-.171-2.692-.019-3.665.456-.974.483-1.728 1.221-2.263 2.214-.542.992-.893 2.176-1.052 3.55l4.577.532-.116 1.001-5.603-.65c.002-.226.014-.426.034-.601.012-.175.025-.319.038-.43.173-1.494.58-2.812 1.22-3.954a6.19 6.19 0 012.69-2.562c1.145-.568 2.564-.754 4.256-.557zm-18.024-3.192l-.398.927-10.25 3.827c-.93.342-1.608.756-2.035 1.239a6.031 6.031 0 00-1.047 1.74 4.177 4.177 0 00-.267 2.246c.12.754.411 1.436.874 2.044a4.179 4.179 0 001.808 1.359c.765.306 1.526.396 2.284.269a4.453 4.453 0 002.042-.9 4.248 4.248 0 001.323-1.784l.936.375a5.159 5.159 0 01-1.67 2.227 5.515 5.515 0 01-2.527 1.081 5.164 5.164 0 01-2.763-.333c-.936-.375-1.686-.943-2.251-1.704a5.422 5.422 0 01-1.054-2.53 5.163 5.163 0 01.33-2.725 6.894 6.894 0 01.866-1.58c.326-.446.72-.827 1.182-1.142a7.195 7.195 0 011.623-.823l10.219-3.814-.001.776-9.69-3.887.375-.935 10.09 4.047zm-18.168-8.756a5.099 5.099 0 011.891 1.973c.429.821.643 1.695.644 2.621a5.1 5.1 0 01-.763 2.625l-3.88 6.404a5.032 5.032 0 01-1.966 1.881 5.45 5.45 0 01-2.62.644 5.04 5.04 0 01-2.632-.752 4.978 4.978 0 01-1.874-1.978 5.316 5.316 0 01-.644-2.62c0-.926.248-1.8.746-2.621l3.88-6.404a5.035 5.035 0 011.983-1.886 5.457 5.457 0 012.62-.643 5.044 5.044 0 012.615.756zm-.522.862a4.059 4.059 0 00-2.115-.608 4.389 4.389 0 00-2.12.512 4.117 4.117 0 00-1.6 1.529l-3.88 6.404a4.053 4.053 0 00-.607 2.116 4.352 4.352 0 00.522 2.126c.349.66.855 1.191 1.519 1.593a4.12 4.12 0 002.125.614 4.374 4.374 0 002.116-.529 4.043 4.043 0 001.593-1.518l3.88-6.405a4.11 4.11 0 00.613-2.125 4.411 4.411 0 00-.518-2.109 4.109 4.109 0 00-1.528-1.6zm-7.954-5.764l-.674.75-10.936.325c-.991.025-1.766.198-2.326.519a6.007 6.007 0 00-1.551 1.31 4.175 4.175 0 00-.976 2.04 4.485 4.485 0 00.17 2.217 4.175 4.175 0 001.275 1.868c.625.537 1.317.867 2.075.99.758.124 1.5.059 2.223-.195a4.244 4.244 0 001.827-1.263l.765.656a5.157 5.157 0 01-2.297 1.571 5.512 5.512 0 01-2.741.21 5.164 5.164 0 01-2.509-1.204c-.765-.656-1.293-1.436-1.583-2.338a5.422 5.422 0 01-.184-2.735 5.169 5.169 0 011.19-2.474c.427-.497.87-.903 1.328-1.216a4.78 4.78 0 011.487-.701 7.147 7.147 0 011.801-.257l10.902-.323-.25.734-7.923-6.798.656-.765 8.251 7.079zm-16.373-15.931l-2.813 2.36 5.384 6.416-.772.648-13.478 3.54-.71-.846 13.479-3.54-4.675-5.57-4.136 3.471-.648-.772 4.136-3.471-1.327-1.581.773-.648 1.326 1.581 2.813-2.361.648.773zm-22.191-17.779l-.264.978-3.187-.848.19 3.273-1.009.056-.189-3.273-3.065 1.19-.365-.94 3.066-1.19-2.07-2.544.783-.638 2.069 2.544 1.788-2.754.855.544-1.789 2.754 3.187.848zm1.343-38.125l-17.252-.999.293-5.056c.013-.207.036-.539.07-.993.034-.455.096-.888.184-1.3.257-1.259.805-2.281 1.644-3.066.839-.793 1.881-1.357 3.127-1.694 1.237-.337 2.59-.463 4.06-.378 1.478.086 2.816.368 4.014.846 1.19.478 2.157 1.159 2.899 2.043.734.876 1.157 1.954 1.267 3.235.032.41.043.852.031 1.324-.018.463-.033.791-.044.983l-.293 5.055zm-.944-1.136l.23-3.978c.022-.383.033-.767.03-1.152a8.575 8.575 0 00-.05-.988c-.126-1.146-.508-2.081-1.148-2.807-.646-.735-1.487-1.289-2.524-1.661-1.043-.381-2.22-.61-3.53-.686-1.31-.075-2.501.016-3.574.274-1.08.25-1.98.703-2.699 1.358-.726.647-1.219 1.532-1.476 2.655a8.63 8.63 0 00-.165.989 19.02 19.02 0 00-.102 1.136l-.23 3.977 15.238.883zm2.056-15.082l-16.823-3.946 1.453-6.192c.038-.164.085-.329.141-.497.048-.17.116-.355.204-.556.315-.781.775-1.413 1.382-1.895a4.617 4.617 0 012.076-.967 5.533 5.533 0 012.428.052 5.628 5.628 0 012.21 1.036 4.734 4.734 0 011.429 1.79c.32.699.448 1.469.383 2.308-.019.218-.04.414-.065.589a5.788 5.788 0 01-.094.508l-1.223 5.21 6.73 1.579-.23.981zm-7.48-2.79l1.222-5.21a7.093 7.093 0 00.148-1.05c.027-.676-.103-1.278-.39-1.805a3.831 3.831 0 00-1.178-1.337 4.874 4.874 0 00-1.708-.758 4.778 4.778 0 00-1.855-.078 3.81 3.81 0 00-1.661.671c-.492.345-.876.826-1.152 1.443a3.57 3.57 0 00-.202.544 5.98 5.98 0 00-.133.462l-1.222 5.21 8.131 1.908zm11.257-12.233l-16.014-6.493 3.607-8.896.934.379-3.228 7.962 6.605 2.678 2.688-6.628.934.379-2.688 6.628 7.54 3.057-.378.934zM52.93 73.481c-1.028 1.38-2.193 2.303-3.497 2.768-1.3.46-2.663.517-4.092.171-1.428-.345-2.848-1.043-4.26-2.094-1.412-1.05-2.488-2.21-3.229-3.48-.74-1.27-1.077-2.592-1.01-3.968.071-1.383.62-2.764 1.648-4.144 1.203-1.617 2.597-2.605 4.18-2.962 1.576-.363 3.195-.194 4.859.505l-.438.99c-1.455-.604-2.86-.752-4.216-.445-1.358.296-2.55 1.134-3.577 2.514-.883 1.187-1.346 2.379-1.388 3.574-.037 1.189.28 2.343.953 3.462.667 1.114 1.62 2.144 2.863 3.088 1.242.944 2.492 1.576 3.75 1.894 1.26.319 2.461.286 3.605-.1 1.143-.395 2.156-1.187 3.04-2.375 1.026-1.38 1.487-2.762 1.381-4.147-.1-1.392-.647-2.695-1.637-3.91l.823-.705c1.148 1.393 1.777 2.899 1.889 4.517.105 1.615-.444 3.23-1.648 4.847zm5.345-7.781L51.05 48.79l.788-.738 16.403 8.313-.789.738-15.967-8.095.525-.492 7.052 16.446-.788.738zm-1.317-4.916l-.656-.7 6.446-6.038.656.7-6.446 6.038zm17.786-9.177l-9.035-13.533-5.27 3.518-.56-.838 11.378-7.596.56.838-5.27 3.518 9.035 13.534-.838.56zm7.234-4.922l-1.351-18.339.985-.443 12.82 13.182-.984.443-12.481-12.835.657-.295 1.339 17.844-.985.443zm.348-5.078l-.394-.875 8.056-3.622.393.876-8.055 3.621zm15.364-1.624l-4.646-16.644.97-.27L98.39 38.74l8.275-2.31.271.97-9.246 2.582zm17.554-3.533c-1.71.186-3.179-.042-4.407-.68-1.22-.641-2.19-1.602-2.908-2.885-.718-1.282-1.172-2.797-1.362-4.547-.189-1.75-.071-3.328.356-4.734.427-1.406 1.168-2.553 2.223-3.44 1.062-.887 2.449-1.424 4.159-1.609 1.71-.185 3.175.042 4.395.683 1.228.639 2.201 1.6 2.919 2.882.719 1.282 1.172 2.798 1.362 4.547.19 1.75.071 3.328-.356 4.734-.427 1.407-1.172 2.554-2.234 3.441-1.055.887-2.437 1.423-4.147 1.608zm-.109-1.002c1.472-.16 2.66-.63 3.565-1.412.912-.791 1.55-1.81 1.914-3.056.364-1.247.461-2.645.293-4.196-.168-1.551-.563-2.896-1.185-4.036-.624-1.147-1.465-2.006-2.524-2.575-1.052-.57-2.313-.775-3.785-.616-1.471.16-2.659.63-3.564 1.412-.897.782-1.527 1.8-1.89 3.054-.364 1.246-.47 2.646-.318 4.198.152 1.553.539 2.9 1.162 4.039.622 1.14 1.464 1.998 2.524 2.575 1.067.568 2.337.773 3.808.613zm18.101.502c-1.283-.108-2.388-.423-3.316-.944a6.568 6.568 0 01-2.257-2.058c-.578-.852-.984-1.838-1.218-2.958-.225-1.127-.282-2.349-.17-3.664.149-1.753.568-3.276 1.255-4.566.689-1.298 1.635-2.277 2.84-2.938 1.213-.667 2.676-.928 4.39-.783 1.642.14 2.976.643 4.002 1.51a6.308 6.308 0 012.079 3.175l-1.015.323a5.403 5.403 0 00-1.802-2.743c-.878-.725-1.995-1.145-3.35-1.26-1.474-.126-2.731.109-3.769.703-1.029.587-1.842 1.457-2.438 2.61-.596 1.154-.968 2.508-1.116 4.06-.148 1.554-.026 2.95.367 4.187.392 1.238 1.053 2.241 1.984 3.01.938.763 2.145 1.207 3.62 1.332 1.474.126 2.691-.064 3.649-.568.959-.513 1.69-1.274 2.193-2.283.512-1.008.826-2.202.943-3.58l-4.591-.391.085-1.005 5.62.478c.005.226 0 .426-.015.601-.007.176-.015.32-.025.432-.127 1.498-.493 2.828-1.098 3.99a6.194 6.194 0 01-2.609 2.643c-1.127.603-2.54.832-4.238.688zm18.502 2.585l.37-.938 10.13-4.134c.92-.37 1.586-.803 1.998-1.3a6.016 6.016 0 00.994-1.77 4.183 4.183 0 00.2-2.252 4.49 4.49 0 00-.935-2.017 4.177 4.177 0 00-1.848-1.304c-.774-.284-1.537-.351-2.291-.201-.754.15-1.425.47-2.014.961a4.242 4.242 0 00-1.269 1.823l-.946-.347a5.155 5.155 0 011.601-2.276 5.516 5.516 0 012.494-1.156 5.165 5.165 0 012.772.25c.946.346 1.713.892 2.301 1.636a5.414 5.414 0 011.129 2.497 5.158 5.158 0 01-.248 2.734 6.885 6.885 0 01-.818 1.604 4.78 4.78 0 01-1.147 1.177 7.16 7.16 0 01-1.598.871l-10.099 4.12-.023-.776 9.802 3.594-.347.947-10.208-3.743zm18.284 8.057a5.107 5.107 0 01-1.949-1.917 5.597 5.597 0 01-.72-2.6 5.096 5.096 0 01.685-2.646l3.689-6.516a5.037 5.037 0 011.911-1.938c.812-.46 1.678-.7 2.6-.72a5.032 5.032 0 012.652.673 4.964 4.964 0 011.932 1.922 5.32 5.32 0 01.721 2.6 4.978 4.978 0 01-.669 2.642l-3.689 6.516a5.034 5.034 0 01-1.927 1.943 5.449 5.449 0 01-2.6.72 5.036 5.036 0 01-2.636-.679zm.497-.877a4.049 4.049 0 002.132.545 4.383 4.383 0 002.104-.574 4.113 4.113 0 001.553-1.575l3.689-6.516a4.042 4.042 0 00.545-2.132 4.335 4.335 0 00-.584-2.11 4.052 4.052 0 00-1.564-1.547 4.116 4.116 0 00-2.143-.552 4.379 4.379 0 00-2.099.59 4.05 4.05 0 00-1.548 1.565l-3.689 6.517a4.105 4.105 0 00-.551 2.142 4.41 4.41 0 00.58 2.093 4.103 4.103 0 001.575 1.554zm8.338 5.578l.653-.769 10.922-.644c.99-.053 1.76-.249 2.31-.586a6.028 6.028 0 001.512-1.354 4.18 4.18 0 00.916-2.068 4.497 4.497 0 00-.234-2.211 4.181 4.181 0 00-1.329-1.83c-.641-.519-1.342-.828-2.103-.93a4.451 4.451 0 00-2.217.26 4.244 4.244 0 00-1.789 1.316l-.784-.634a5.167 5.167 0 012.25-1.637 5.519 5.519 0 012.734-.29c.93.135 1.778.512 2.543 1.13.784.635 1.334 1.398 1.65 2.292.322.887.41 1.797.264 2.728a5.17 5.17 0 01-1.117 2.508 6.91 6.91 0 01-1.293 1.254c-.442.331-.931.58-1.465.744a7.142 7.142 0 01-1.793.31l-10.889.64.229-.741 8.118 6.564-.633.784-8.455-6.836zm16.951 15.484l2.743-2.442-5.569-6.256.753-.67 13.369-3.931.734.825-13.369 3.93 4.835 5.432 4.033-3.59.671.753-4.034 3.59 1.372 1.542-.753.67-1.372-1.541-2.743 2.44-.67-.752zm22.785 17.082l.235-.986 3.211.753-.287-3.266 1.005-.087.287 3.267 3.029-1.281.392.928-3.028 1.28 2.144 2.482-.763.661-2.144-2.48-1.705 2.805-.871-.518 1.706-2.806-3.211-.752z" fill="#fff"/></svg>