<svg width="24" height="24" fill="none" xmlns="http://www.w3.org/2000/svg"><path fill-rule="evenodd" clip-rule="evenodd" d="M5 5a1 1 0 00-1 .974A15 15 0 0018.026 20 1 1 0 0019 19v-3.323l-3.58-1.432-1.063 1.77a1 1 0 01-1.3.382 12 12 0 01-5.454-5.455 1 1 0 01.383-1.3l1.77-1.061L8.322 5H5zM2.879 3.879A3 3 0 015 3h4a1 1 0 01.928.629l2 5a1 1 0 01-.414 1.228l-1.673 1.005a10.001 10.001 0 003.297 3.297l1.005-1.674a1 1 0 011.228-.413l5 2A1 1 0 0121 15v4a3 3 0 01-3.06 2.998A17 17 0 012 6a3 3 0 01.879-2.121z" fill="#FF5112"/></svg>