<svg width="28" height="28" viewBox="0 0 28 28" fill="none" xmlns="http://www.w3.org/2000/svg">
<g clip-path="url(#clip0_24_1945)">
<path d="M27.455 7.42466L14.4408 0.917628C14.1634 0.778759 13.8366 0.778759 13.5591 0.917628L0.54501 7.42466C0.21099 7.59171 0 7.93299 0 8.30652V26.2009C0 26.7453 0.441401 27.1868 0.985939 27.1868H4.2395C4.78395 27.1868 5.22544 26.7454 5.22544 26.2009V10.9192H22.7747V26.2009C22.7747 26.7453 23.2161 27.1868 23.7607 27.1868H27.0142C27.5587 27.1868 28.0002 26.7454 28.0002 26.2009V8.30652C28 7.93299 27.789 7.59171 27.455 7.42466ZM26.0282 25.2149H24.7465V9.93325C24.7465 9.38881 24.3051 8.94731 23.7606 8.94731H4.23941C3.69496 8.94731 3.25347 9.38871 3.25347 9.93325V25.2149H1.97178V8.91582L14 2.90176L26.0282 8.91582V25.2149Z" fill="#FF5112"/>
<path d="M20.5071 12.4966H14.0001C13.619 12.4966 13.31 12.8055 13.31 13.1867V19.0036H7.49308C7.11192 19.0036 6.80298 19.3126 6.80298 19.6937V26.2007C6.80298 26.5819 7.11192 26.8908 7.49308 26.8908H20.5071C20.8883 26.8908 21.1972 26.5819 21.1972 26.2007V13.1868C21.1973 12.8055 20.8883 12.4966 20.5071 12.4966ZM14.6902 21.36L16.2775 22.9474L14.6902 24.5347V21.36ZM13.31 24.5346L11.7227 22.9473L13.31 21.3599V24.5346ZM15.6663 20.3839H18.8409L17.2536 21.9712L15.6663 20.3839ZM15.6663 19.0036L17.2537 17.4163L18.841 19.0036H15.6663ZM19.817 18.0276L18.2298 16.4402L19.817 14.8529V18.0276ZM17.2537 15.4642L15.6663 13.8769H18.8409L17.2537 15.4642ZM16.2775 16.4402L14.6902 18.0276V14.853L16.2775 16.4402ZM10.7465 21.9712L9.15922 20.3839H12.3338L10.7465 21.9712ZM9.77051 22.9473L8.18318 24.5346V21.36L9.77051 22.9473ZM10.7465 23.9234L12.3339 25.5107H9.15932L10.7465 23.9234ZM17.2536 23.9234L18.8409 25.5107H15.6663L17.2536 23.9234ZM18.2297 22.9473L19.817 21.3599V24.5345L18.2297 22.9473Z" fill="#FF5112"/>
</g>
<defs>
<clipPath id="clip0_24_1945">
<rect width="28" height="28" fill="white"/>
</clipPath>
</defs>
</svg>
