<svg width="27" height="28" viewBox="0 0 27 28" fill="none" xmlns="http://www.w3.org/2000/svg">
<path d="M17.4247 8.36981C17.392 8.27161 17.3294 8.18611 17.2456 8.12528C17.1619 8.06445 17.0612 8.03134 16.9577 8.0306H14.5144L13.7622 5.71018C13.7299 5.61182 13.6673 5.52618 13.5834 5.46547C13.4996 5.40476 13.3987 5.37207 13.2952 5.37207C13.1916 5.37207 13.0907 5.40476 13.0069 5.46547C12.923 5.52618 12.8604 5.61182 12.8281 5.71018L12.076 8.0306H9.63263C9.52912 8.03134 9.42844 8.06445 9.34469 8.12528C9.26094 8.18611 9.19832 8.27161 9.16559 8.36981C9.13292 8.46897 9.13295 8.57599 9.1657 8.67512C9.19845 8.77426 9.26218 8.86024 9.34749 8.92042L11.3189 10.3559L10.5667 12.6764C10.5342 12.7751 10.5339 12.8815 10.5657 12.9804C10.5974 13.0794 10.6598 13.1657 10.7437 13.227C10.8285 13.2869 10.9298 13.3191 11.0337 13.3191C11.1376 13.3191 11.239 13.2869 11.3238 13.227L13.2952 11.7914L15.2665 13.227C15.3521 13.2856 15.4529 13.3181 15.5566 13.3204C15.6605 13.3196 15.7617 13.287 15.8466 13.227C15.9305 13.1657 15.9929 13.0794 16.0247 12.9804C16.0565 12.8815 16.0561 12.7751 16.0236 12.6764L15.2714 10.3559L17.2428 8.92042C17.3281 8.86024 17.3919 8.77426 17.4246 8.67512C17.4574 8.57599 17.4574 8.46897 17.4247 8.36981ZM14.4062 9.77091C14.3218 9.83186 14.2588 9.9179 14.2261 10.0168C14.1934 10.1156 14.1928 10.2223 14.2243 10.3215L14.6225 11.5407L13.5852 10.7836C13.5007 10.7229 13.3992 10.6902 13.2952 10.6902C13.1911 10.6902 13.0896 10.7229 13.0051 10.7836L11.9678 11.5407L12.366 10.3215C12.3975 10.2223 12.3969 10.1156 12.3642 10.0168C12.3316 9.9179 12.2685 9.83186 12.1841 9.77091L11.1468 9.01383H12.4299C12.5337 9.01444 12.6351 8.98185 12.7191 8.92083C12.8031 8.85981 12.8654 8.77354 12.8969 8.67461L13.2952 7.45541L13.6934 8.67461C13.7249 8.77354 13.7872 8.85981 13.8712 8.92083C13.9552 8.98185 14.0566 9.01444 14.1604 9.01383H15.4435L14.4062 9.77091Z" fill="#FF5112"/>
<path d="M13.295 3.30127C11.6166 3.3008 10.003 3.9487 8.79098 5.10967C7.57897 6.27064 6.8623 7.85494 6.79061 9.53174C6.71892 11.2085 7.29775 12.8482 8.40624 14.1084C9.51473 15.3686 11.0672 16.1518 12.7394 16.2946C12.9262 16.3094 13.1081 16.3192 13.295 16.3192C13.4621 16.3192 13.6342 16.3094 13.8013 16.2946H13.8505V16.2897C15.5221 16.147 17.074 15.364 18.182 14.1042C19.2901 12.8445 19.8686 11.2055 19.7969 9.52928C19.7253 7.85311 19.0088 6.26943 17.7973 5.10892C16.5857 3.9484 14.9727 3.30078 13.295 3.30127ZM18.1177 12.5043C18.1164 12.5043 18.1151 12.5048 18.1142 12.5057C18.1133 12.5067 18.1128 12.5079 18.1128 12.5092C17.673 13.2973 17.0462 13.9651 16.2874 14.4538C15.5287 14.9425 14.6614 15.237 13.762 15.3114L13.7571 15.3163H13.7522C13.4447 15.3466 13.135 15.345 12.8279 15.3114C11.6396 15.2101 10.5159 14.727 9.62489 13.9341C8.7339 13.1413 8.12346 12.0813 7.88483 10.9128C7.64621 9.7442 7.79221 8.52979 8.30101 7.45109C8.80982 6.37239 9.6541 5.48734 10.7076 4.92827C11.7611 4.36919 12.9673 4.16612 14.1458 4.34942C15.3243 4.53271 16.4119 5.09253 17.2458 5.94516C18.0798 6.7978 18.6154 7.89746 18.7725 9.07974C18.9297 10.262 18.7 11.4634 18.1177 12.5043Z" fill="#FF5112"/>
<path d="M26.5097 24.1801L24.6612 21.314C23.3388 19.2738 22.018 17.2304 20.6988 15.1836C20.802 15.1443 20.92 15.1 21.038 15.0607C21.3045 15.0073 21.5577 14.9016 21.783 14.7497C22.0083 14.5979 22.2012 14.4028 22.3506 14.1758C22.4342 13.9191 22.4663 13.6485 22.4452 13.3794C22.4241 13.1104 22.3502 12.8481 22.2277 12.6075C22.1122 12.3559 22.0502 12.083 22.0458 11.8062C22.1676 11.5696 22.3366 11.3604 22.5424 11.1917C22.7612 11.026 22.9451 10.8186 23.0835 10.5815C23.2218 10.3444 23.3119 10.0823 23.3486 9.81026C23.3125 9.53873 23.2226 9.27714 23.0841 9.04078C22.9457 8.80442 22.7615 8.59805 22.5424 8.43374C22.3373 8.2623 22.1685 8.05172 22.0458 7.8143C22.0502 7.53747 22.1122 7.26457 22.2277 7.01297C22.3501 6.77331 22.424 6.51184 22.4451 6.24356C22.4662 5.97528 22.4341 5.70548 22.3506 5.44964C22.2008 5.22304 22.0077 5.02824 21.7825 4.87639C21.5573 4.72455 21.3043 4.61863 21.038 4.56473C20.7732 4.49776 20.5243 4.37914 20.3055 4.21568C20.1967 3.96551 20.1366 3.69687 20.1285 3.42419C20.1359 3.15325 20.0898 2.88352 19.9928 2.63044C19.8958 2.37736 19.7498 2.14591 19.5632 1.94934C19.0933 1.67272 18.5331 1.59319 18.0048 1.72812C17.7372 1.78335 17.4612 1.78335 17.1936 1.72812C16.9877 1.55562 16.8188 1.34324 16.6971 1.10377C16.5853 0.852891 16.4247 0.626763 16.2246 0.43855C16.0246 0.250336 15.7891 0.103797 15.5319 0.00746564C15.2656 -0.015433 14.9973 0.0144687 14.7426 0.0954561C14.4878 0.176444 14.2515 0.306924 14.0473 0.479415C13.8239 0.649607 13.5679 0.77179 13.2951 0.838294C13.0223 0.77179 12.7662 0.649607 12.5429 0.479415C12.3394 0.307303 12.104 0.177025 11.85 0.0960401C11.5961 0.0150556 11.3287 -0.0150438 11.0632 0.00746564C10.8049 0.10295 10.5683 0.249131 10.3674 0.437405C10.1664 0.625679 10.0052 0.852244 9.89312 1.10377C9.77122 1.34175 9.60425 1.55379 9.4015 1.72812C9.13227 1.78327 8.85465 1.78327 8.58542 1.72812C8.05873 1.59313 7.49999 1.6727 7.03192 1.94934C6.84322 2.14567 6.69559 2.37767 6.59767 2.63176C6.49975 2.88585 6.45351 3.15692 6.46165 3.4291C6.45663 3.70112 6.39467 3.96908 6.27975 4.21568C6.06542 4.37941 5.81928 4.49662 5.55708 4.55981C5.0181 4.6688 4.54431 4.98702 4.23955 5.44472C4.15601 5.70138 4.12387 5.97199 4.14496 6.24108C4.16605 6.51016 4.23995 6.77246 4.36245 7.01297C4.47801 7.26457 4.53995 7.53747 4.54435 7.8143C4.42164 8.05172 4.25284 8.2623 4.04782 8.43374C3.82866 8.59805 3.64447 8.80442 3.50603 9.04078C3.36759 9.27714 3.27769 9.53873 3.24157 9.81026C3.27823 10.0823 3.36834 10.3444 3.50671 10.5815C3.64508 10.8186 3.82898 11.026 4.04782 11.1917C4.25359 11.3604 4.42258 11.5696 4.54435 11.8062C4.53995 12.083 4.47801 12.3559 4.36245 12.6075C4.24005 12.8472 4.16618 13.1087 4.14509 13.377C4.12399 13.6452 4.1561 13.915 4.23955 14.1709C4.38818 14.3985 4.5809 14.5941 4.80634 14.7461C5.03178 14.8981 5.28537 15.0034 5.55216 15.0558C5.66523 15.1 5.78322 15.1394 5.89138 15.1836C4.56893 17.2287 3.24813 19.2722 1.92896 21.314L0.0804923 24.1801C0.0271734 24.2605 -0.000856353 24.3549 1.99362e-05 24.4513C0.000896226 24.5477 0.0306384 24.6416 0.0854086 24.7209C0.13882 24.8002 0.214362 24.8621 0.302643 24.8988C0.390924 24.9355 0.488048 24.9454 0.581939 24.9274L3.93967 24.303L4.75575 27.6264C4.77944 27.7192 4.82976 27.8031 4.9005 27.8677C4.97125 27.9324 5.05935 27.9749 5.15395 27.9902C5.17981 27.9958 5.20615 27.9991 5.23261 28C5.315 28.0005 5.39616 27.9801 5.46842 27.9405C5.54069 27.9009 5.60166 27.8436 5.64557 27.7738L10.9452 19.5688C10.9845 19.5786 11.0189 19.6032 11.0582 19.613C11.1388 19.6323 11.2213 19.6422 11.3041 19.6425C11.7553 19.5928 12.1841 19.4193 12.5429 19.1411C12.7662 18.9709 13.0223 18.8487 13.2951 18.7822C13.5679 18.8487 13.8239 18.9709 14.0473 19.1411C14.2516 19.315 14.4887 19.4463 14.7445 19.5273C15.0002 19.6083 15.2696 19.6375 15.5368 19.613C15.5762 19.6032 15.6106 19.5786 15.645 19.5688L20.9446 27.7738C20.9885 27.8436 21.0495 27.9009 21.1218 27.9405C21.194 27.9801 21.2752 28.0005 21.3576 28C21.384 27.9991 21.4104 27.9958 21.4362 27.9902C21.5308 27.9749 21.6189 27.9324 21.6897 27.8677C21.7604 27.8031 21.8107 27.7192 21.8344 27.6264L22.6505 24.303L26.0082 24.9274C26.1021 24.9449 26.1991 24.9347 26.2872 24.8981C26.3754 24.8614 26.451 24.7998 26.5048 24.7209C26.5595 24.6416 26.5893 24.5477 26.5902 24.4513C26.591 24.3549 26.563 24.2605 26.5097 24.1801ZM5.43909 26.2793L4.78524 23.6197C4.75587 23.4977 4.68095 23.3915 4.57584 23.323C4.47073 23.2544 4.34338 23.2287 4.21989 23.251L1.52584 23.7524L2.75487 21.8499C3.98391 19.9424 5.21622 18.035 6.45182 16.1275C6.45716 16.1501 6.46045 16.1731 6.46165 16.1963C6.45425 16.4673 6.50037 16.737 6.59738 16.9901C6.6944 17.2432 6.84039 17.4746 7.027 17.6712C7.49698 17.9475 8.0571 18.027 8.58542 17.8924C8.85299 17.8372 9.12902 17.8372 9.39659 17.8924C9.60367 18.0638 9.77278 18.2764 9.89312 18.5167C9.98652 18.6593 10.0799 18.8019 10.1783 18.9395L5.43909 26.2793ZM15.4582 18.5561C15.4185 18.6012 15.3676 18.6351 15.3107 18.6544C15.1731 18.6839 14.8093 18.4627 14.5733 18.3103C14.2037 18.0233 13.7607 17.8461 13.2951 17.799C12.8295 17.8461 12.3865 18.0233 12.0169 18.3103C11.7809 18.4627 11.4171 18.6888 11.2844 18.6593C11.2241 18.6362 11.1702 18.5992 11.1271 18.5512C10.9748 18.3808 10.8413 18.1945 10.7289 17.9956C10.5254 17.5899 10.2142 17.248 9.82921 17.0075C9.60573 16.9058 9.36178 16.857 9.11637 16.8649C8.90257 16.8691 8.68919 16.8855 8.47727 16.9141C8.17247 16.9485 7.75951 16.9977 7.64152 16.9043C7.52353 16.8108 7.47437 16.393 7.43996 16.0882C7.43397 15.6278 7.29945 15.1783 7.05158 14.7903C7.01246 14.7412 6.96794 14.6967 6.91885 14.6576C6.90009 14.6417 6.88039 14.6269 6.85985 14.6133L6.85494 14.6084H6.85002C6.55611 14.3935 6.2266 14.232 5.87663 14.1315C5.58657 14.0283 5.19328 13.8907 5.12446 13.7432C5.05563 13.6055 5.19328 13.2171 5.2916 12.932C5.48853 12.5139 5.56188 12.0483 5.503 11.5899C5.35863 11.1593 5.09426 10.779 4.741 10.4936C4.52469 10.2773 4.2248 9.97741 4.2248 9.81026C4.2248 9.64311 4.52469 9.34322 4.741 9.12691C5.09426 8.84154 5.35863 8.46118 5.503 8.03061C5.56188 7.57224 5.48853 7.10659 5.2916 6.68851C5.19328 6.40337 5.05563 6.01499 5.12446 5.87243C5.19328 5.72986 5.59149 5.59221 5.88154 5.48897C6.32471 5.38477 6.72892 5.15622 7.04667 4.8302C7.2982 4.44546 7.43465 3.9969 7.43996 3.53726C7.47437 3.23246 7.51862 2.8195 7.64152 2.72118C7.76443 2.62285 8.17247 2.67202 8.47727 2.70643C8.92778 2.8024 9.39618 2.77004 9.82921 2.61302C10.2153 2.37393 10.5269 2.03167 10.7289 1.62488C10.8911 1.35941 11.1172 1.00053 11.2795 0.966114C11.4171 0.931701 11.7809 1.16276 12.0169 1.31024C12.3865 1.59726 12.8295 1.77445 13.2951 1.82152C13.7607 1.77445 14.2037 1.59726 14.5733 1.31024C14.8093 1.16276 15.1681 0.936617 15.3107 0.966114C15.4729 1.00053 15.6991 1.35941 15.8613 1.62488C16.0632 2.03167 16.3748 2.37393 16.761 2.61302C17.194 2.77004 17.6624 2.8024 18.1129 2.70643C18.4177 2.67202 18.8307 2.62285 18.9487 2.71626C19.0666 2.80967 19.1158 3.22754 19.1502 3.53234C19.1562 3.9927 19.2907 4.44222 19.5386 4.8302C19.861 5.15621 20.2679 5.38601 20.7135 5.49388C21.0036 5.59221 21.3969 5.72986 21.4657 5.87734C21.5345 6.01499 21.3969 6.40337 21.2986 6.68851C21.1016 7.10659 21.0283 7.57224 21.0872 8.03061C21.2315 8.46118 21.4959 8.84154 21.8492 9.12691C22.0655 9.34322 22.3654 9.64311 22.3654 9.81026C22.3654 9.97741 22.0655 10.2773 21.8492 10.4936C21.4959 10.779 21.2315 11.1593 21.0872 11.5899C21.0283 12.0483 21.1016 12.5139 21.2986 12.932C21.3969 13.2171 21.5345 13.6055 21.4657 13.7481C21.3969 13.8907 20.9987 14.0332 20.7135 14.1315C20.3454 14.2321 20 14.4024 19.6959 14.633C19.6414 14.6817 19.5905 14.7343 19.5435 14.7903C19.292 15.1751 19.1555 15.6236 19.1502 16.0833C19.1158 16.3881 19.0716 16.801 18.9487 16.8993C18.8258 16.9977 18.4177 16.9485 18.1129 16.9141C17.6626 16.8157 17.1935 16.8481 16.761 17.0075C16.376 17.248 16.0647 17.5899 15.8613 17.9956C15.7477 18.1965 15.6125 18.3845 15.4582 18.5561ZM22.3703 23.251C22.2468 23.2287 22.1194 23.2544 22.0143 23.323C21.9092 23.3915 21.8343 23.4977 21.8049 23.6197L21.1511 26.2793L16.4119 18.9395C16.5102 18.8019 16.6037 18.6593 16.6971 18.5167C16.8175 18.2779 16.9847 18.0656 17.1887 17.8924C17.4579 17.8372 17.7355 17.8372 18.0048 17.8924C18.5314 18.0274 19.0902 17.9478 19.5583 17.6712C19.7465 17.4755 19.8939 17.2444 19.9918 16.9911C20.0897 16.7379 20.1362 16.4677 20.1285 16.1963C20.1294 16.1731 20.1327 16.15 20.1384 16.1275C21.3723 18.035 22.6046 19.9424 23.8353 21.8499L25.0643 23.7524L22.3703 23.251Z" fill="#FF5112"/>
</svg>
