<svg width="28" height="28" viewBox="0 0 28 28" fill="none" xmlns="http://www.w3.org/2000/svg">
<path d="M21.1222 4.31787L18.3954 7.04464L18.6489 7.30791C18.4683 7.45376 18.2855 7.59606 18.1081 7.72239C17.8218 7.92692 17.5469 8.09098 17.3606 8.16793C17.3486 8.17328 17.2979 8.1875 17.1974 8.18707C17.0369 8.18882 16.7683 8.14791 16.4392 8.09771C16.1088 8.04789 15.7135 7.99369 15.268 7.9932C14.8793 7.99189 14.4506 8.03903 13.9993 8.16306C13.5489 8.03946 13.1211 7.9932 12.7333 7.99369C12.2873 7.99369 11.892 8.04794 11.5616 8.0982C11.2325 8.1484 10.9644 8.18936 10.8039 8.18756C10.7029 8.18843 10.6527 8.17334 10.6425 8.16842C10.4437 8.08704 10.1439 7.90559 9.83538 7.68104C9.67575 7.565 9.513 7.43779 9.35156 7.30709L9.6046 7.0447L6.87783 4.31793L0 11.4416L2.72677 14.1683L3.52494 13.3417L5.28675 14.8793C5.33608 15.1742 5.42905 15.4525 5.53623 15.7167C5.60602 15.8848 5.68252 16.0466 5.76084 16.1987C5.59048 16.4807 5.49757 16.8026 5.49845 17.129C5.49801 17.4528 5.58693 17.7836 5.7697 18.0775C6.04762 18.5244 6.49277 18.8055 6.97342 18.8944C6.97616 19.2123 7.0642 19.5365 7.24336 19.8247C7.58357 20.3717 8.17234 20.6749 8.77264 20.674C8.79577 20.674 8.81934 20.6704 8.84242 20.6695C8.87266 20.9239 8.95628 21.1774 9.09945 21.4077C9.43966 21.9546 10.0288 22.2579 10.6282 22.257C10.6879 22.257 10.747 22.2508 10.807 22.245C10.8355 22.474 10.9115 22.7025 11.04 22.9089C11.35 23.407 11.8863 23.6835 12.4318 23.6822C12.7262 23.6827 13.0277 23.6026 13.2954 23.4363L14.1128 22.9276C14.2738 23.0317 14.4427 23.1233 14.6201 23.198C14.9505 23.3371 15.3076 23.4225 15.6789 23.4229C16.0862 23.4248 16.5162 23.3131 16.8862 23.053C17.1272 22.8849 17.3313 22.6545 17.4985 22.3829C17.5243 22.3838 17.5452 22.3883 17.5719 22.3887C17.7413 22.3887 17.9272 22.3633 18.1113 22.306C18.2967 22.2495 18.4808 22.165 18.6774 22.0525C19.146 21.7884 19.4271 21.3997 19.5636 21.0667C19.5939 20.9938 19.6156 20.9253 19.6352 20.859C19.7486 20.823 19.8571 20.779 19.9554 20.7221C20.3178 20.5135 20.5539 20.1965 20.6993 19.8781C20.8452 19.5565 20.9092 19.2226 20.9101 18.9016C20.9101 18.87 20.9061 18.8393 20.9047 18.8082C21.1418 18.7113 21.3547 18.5765 21.5362 18.4178C21.722 18.255 21.8781 18.0656 21.9942 17.8495C22.1098 17.6343 22.1872 17.3879 22.1876 17.118C22.1881 16.9424 22.152 16.7574 22.0734 16.5839C22.048 16.5288 22.012 16.4781 21.9791 16.427C22.1174 16.1793 22.2583 15.9001 22.3739 15.5986C22.4606 15.3704 22.5336 15.1312 22.5754 14.8799L24.4123 13.2769L25.2732 14.1685L28 11.4416L21.1222 4.31787ZM7.58756 17.5235L7.55595 17.5435C7.4737 17.5942 7.38741 17.6169 7.29848 17.6173C7.13349 17.6164 6.97517 17.5359 6.88226 17.3861C6.83156 17.3039 6.80843 17.2171 6.80843 17.1291C6.8093 16.9632 6.88937 16.8058 7.03877 16.7128L8.11891 16.0418C8.20116 15.9907 8.28745 15.9685 8.37545 15.9676C8.54131 15.9693 8.69876 16.0485 8.79216 16.1992L9.34844 15.8537L8.79216 16.1997C8.84286 16.2815 8.8655 16.3677 8.86599 16.4558C8.86506 16.5714 8.82372 16.6817 8.74907 16.7706L7.82141 17.3469C7.73697 17.3994 7.66002 17.4603 7.58756 17.5235ZM9.02962 19.2902C8.94737 19.3409 8.86107 19.364 8.77259 19.364C8.60716 19.3631 8.44889 19.283 8.35592 19.1332C8.30517 19.051 8.28253 18.9638 8.28209 18.8757C8.28248 18.7611 8.32387 18.6508 8.39814 18.5627L9.32619 17.9851C9.41024 17.933 9.48631 17.8726 9.55877 17.8094L9.59257 17.789C9.67482 17.7379 9.76155 17.7152 9.84916 17.7152C10.0155 17.716 10.1724 17.7961 10.2658 17.9464C10.3165 18.0286 10.3392 18.1144 10.3396 18.203C10.3387 18.3679 10.2592 18.5262 10.1079 18.6201L9.02962 19.2902ZM11.964 20.2027L10.8853 20.8733C10.8035 20.924 10.7172 20.9471 10.6282 20.9471C10.4633 20.9462 10.3049 20.8661 10.212 20.7163C10.1613 20.6336 10.1387 20.5473 10.1382 20.4588C10.1396 20.293 10.2191 20.136 10.3685 20.0426L11.4487 19.3716C11.5309 19.3205 11.6172 19.2983 11.7052 19.2983C11.8711 19.2986 12.0285 19.3787 12.1219 19.529C12.1726 19.6113 12.1953 19.6976 12.1957 19.7861C12.1948 19.9509 12.1152 20.1083 11.964 20.2027ZM13.6365 21.2965C13.6707 21.3512 13.6854 21.4081 13.6858 21.4677C13.6849 21.5784 13.632 21.6838 13.5302 21.7474L12.6039 22.3228C12.5488 22.3575 12.4918 22.3721 12.4318 22.3721C12.3207 22.3717 12.2153 22.3179 12.1525 22.2174C12.1183 22.1618 12.1036 22.1049 12.1032 22.0454C12.1045 21.9337 12.1574 21.8292 12.2574 21.767H12.2579L13.185 21.1907C13.2415 21.1555 13.298 21.1408 13.3571 21.1408C13.4688 21.1417 13.5733 21.1947 13.6359 21.2956L14.1927 20.9505L13.6365 21.2965ZM20.8398 17.23C20.7922 17.322 20.6837 17.442 20.5464 17.5261C20.4089 17.6111 20.2493 17.6609 20.0963 17.6604C20.042 17.6604 19.9896 17.6697 19.9385 17.6831C19.8451 17.6626 19.7516 17.6342 19.6597 17.5977C19.3746 17.4865 19.1083 17.3064 18.9202 17.1543C18.8259 17.0783 18.7512 17.0099 18.7014 16.9623L18.6462 16.9076L18.6342 16.8951L18.6324 16.8934H18.632C18.4488 16.6941 18.1384 16.6808 17.9388 16.864C17.7391 17.0473 17.7253 17.3576 17.909 17.5586C17.9254 17.5755 18.1723 17.8449 18.5765 18.1225C18.7792 18.2612 19.0216 18.4026 19.3004 18.512C19.3648 18.5374 19.432 18.5609 19.501 18.5823C19.5201 18.6254 19.5445 18.6663 19.5734 18.705L19.5721 18.7059C19.5757 18.7086 19.6024 18.7931 19.6001 18.9016C19.6033 19.0826 19.5374 19.3196 19.4427 19.4503C19.3965 19.517 19.3494 19.5592 19.3036 19.5855C19.2569 19.6113 19.2097 19.6282 19.1213 19.6295L19.0897 19.6291C19.071 19.6282 19.0532 19.6313 19.035 19.6322C19.0341 19.6322 19.0337 19.6322 19.0337 19.6322C18.6076 19.634 18.211 19.4512 17.9184 19.2511C17.7726 19.1524 17.6556 19.0519 17.5769 18.9781C17.5382 18.9416 17.5084 18.9114 17.4902 18.8927L17.4711 18.8723L17.468 18.8683H17.4675C17.2901 18.6646 16.9811 18.6424 16.776 18.8198C16.5706 18.9977 16.5484 19.3077 16.7262 19.5131L16.7258 19.5127C16.7449 19.534 16.9717 19.7954 17.3662 20.064C17.6258 20.2396 17.9647 20.4215 18.3671 20.5265C18.3627 20.5381 18.36 20.5496 18.3547 20.5612C18.3031 20.6777 18.2293 20.7977 18.0283 20.9151C17.8926 20.9926 17.7957 21.033 17.7277 21.0534C17.6592 21.0739 17.621 21.0779 17.572 21.0783C17.5085 21.0793 17.4128 21.065 17.2536 21.0325C17.2248 21.0263 17.1959 21.0245 17.167 21.0228C17.1562 21.0183 17.1461 21.0143 17.1345 21.0085C16.9717 20.932 16.7734 20.7937 16.6271 20.6759C16.5537 20.6176 16.4915 20.5643 16.4487 20.5265L16.4007 20.4829L16.3896 20.4722L16.3874 20.4705C16.1913 20.2828 15.88 20.29 15.6924 20.486C15.5052 20.6821 15.5123 20.9934 15.7084 21.1806C15.7186 21.1899 15.9254 21.3883 16.2153 21.5964C16.2669 21.6329 16.3238 21.6698 16.3807 21.7062C16.3006 21.8338 16.2171 21.9214 16.1353 21.9797C16.0045 22.0695 15.8622 22.1122 15.679 22.1131C15.515 22.1136 15.3219 22.0731 15.129 21.9913C15.0649 21.9646 15.0023 21.9268 14.9391 21.8917C14.976 21.7538 14.9965 21.6111 14.996 21.4679C14.9965 21.173 14.9155 20.8716 14.7492 20.6043C14.4669 20.1503 13.996 19.8835 13.5028 19.8399C13.5028 19.822 13.5058 19.8043 13.5058 19.7861C13.5063 19.4628 13.4174 19.1311 13.235 18.8376V18.8385C12.8944 18.2898 12.3047 17.9865 11.7053 17.9878C11.6822 17.9878 11.6586 17.9918 11.6355 17.9927C11.6053 17.7379 11.5217 17.4853 11.3786 17.255H11.3789C11.101 16.8072 10.6555 16.5262 10.1748 16.4381C10.1717 16.1201 10.0841 15.796 9.90484 15.5078H9.90527C9.56512 14.9604 8.97498 14.6567 8.37556 14.6576C8.05137 14.6576 7.721 14.7466 7.42705 14.9288L6.79607 15.321C6.78092 15.2864 6.76184 15.2526 6.74805 15.2179C6.63824 14.9551 6.56928 14.6958 6.56173 14.5171L6.54708 14.2405L4.43625 12.3978L8.43828 8.25291C8.64287 8.42058 8.85276 8.58689 9.06801 8.74253C9.42463 8.99956 9.77812 9.22635 10.1392 9.37843C10.3709 9.47403 10.5968 9.4976 10.8041 9.49803C11.1358 9.49672 11.4399 9.43979 11.757 9.39353C11.7774 9.38997 11.7988 9.38822 11.8197 9.38505C11.3839 9.759 11.0037 10.1637 10.6822 10.5404C10.4114 10.8583 10.1828 11.158 10.0018 11.4026C9.82308 11.6458 9.68521 11.8419 9.62473 11.9193C9.32679 12.3071 9.19877 12.7709 9.19609 13.2355C9.1974 13.6678 9.31213 14.1178 9.61007 14.498C9.7586 14.6861 9.95602 14.8506 10.1917 14.9627C10.4269 15.0756 10.6964 15.1334 10.977 15.1334C11.3252 15.1325 11.6902 15.048 12.0767 14.8857C13.2898 14.3726 14.5402 14.0306 15.4811 13.8198C15.9516 13.7149 16.3451 13.642 16.6195 13.5962C16.6711 13.5877 16.7142 13.5806 16.7569 13.5735L20.8733 17.1221L20.875 17.1229L20.8764 17.1252C20.8759 17.1379 20.8696 17.1748 20.8398 17.23ZM21.3161 14.2404L21.3018 14.517C21.2943 14.6753 21.2405 14.8985 21.1502 15.1298C21.1043 15.2507 21.0483 15.3726 20.9897 15.4926L17.3847 12.3852C17.2446 12.2643 17.0579 12.2082 16.8742 12.2314C16.8422 12.2376 14.1981 12.5693 11.567 13.6784C11.3051 13.7891 11.1085 13.8233 10.9769 13.8224C10.8697 13.8224 10.8043 13.8033 10.7559 13.7802C10.6856 13.7459 10.6354 13.6974 10.5856 13.6045C10.538 13.513 10.5055 13.3778 10.506 13.2355C10.5033 13.031 10.5763 12.8228 10.658 12.7242C10.7599 12.5925 10.8844 12.4129 11.0561 12.1807C11.3108 11.8357 11.6568 11.3892 12.0694 10.9547C12.4812 10.5203 12.9601 10.0997 13.4621 9.80434C14.1412 9.4055 14.7197 9.30543 15.268 9.30362C15.6055 9.30318 15.9292 9.3454 16.245 9.39298C16.5616 9.43968 16.8666 9.49568 17.1975 9.49749C17.4042 9.49705 17.6288 9.47348 17.8596 9.3792L17.8627 9.37832C18.2238 9.22624 18.5773 8.99945 18.9339 8.74242C19.1478 8.58765 19.3586 8.42047 19.5623 8.25329L23.5017 12.3332L21.3161 14.2404Z" fill="#FF5112"/>
</svg>
