<svg width="28" height="28" viewBox="0 0 28 28" fill="none" xmlns="http://www.w3.org/2000/svg">
<path d="M23.1306 1.21739C23.1306 0.545044 23.6756 0 24.348 0C25.0203 0 25.5654 0.545044 25.5654 1.21739V2.43478H26.7828C27.4551 2.43478 28.0001 2.97983 28.0001 3.65217C28.0001 4.32451 27.4551 4.86956 26.7828 4.86956H25.5654V6.08696C25.5654 6.7593 25.0203 7.30435 24.348 7.30435C23.6756 7.30435 23.1306 6.7593 23.1306 6.08696V4.86956H21.9132C21.2408 4.86956 20.6958 4.32451 20.6958 3.65217C20.6958 2.97983 21.2408 2.43478 21.9132 2.43478H23.1306V1.21739Z" fill="#FF5112"/>
<path d="M24.5835 9.82988C25.202 9.56586 25.9268 9.85027 26.1336 10.49C26.9591 13.044 27.0008 15.7975 26.2376 18.3903C25.3593 21.3739 23.4699 23.9586 20.8936 25.7011C18.3174 27.4434 15.2151 28.2348 12.119 27.9393C9.02292 27.6438 6.12626 26.2798 3.92616 24.0816C1.72605 21.8834 0.359723 18.9878 0.0616565 15.892C-0.2364 12.7961 0.552411 9.6931 2.2927 7.11544C4.03297 4.53778 6.61621 2.64625 9.59902 1.76548C12.1912 1.00007 14.9447 1.0395 17.4994 1.86295C18.1393 2.06921 18.4243 2.79382 18.1608 3.41238C17.8973 4.03095 17.1818 4.3155 16.5378 4.12226C14.5095 3.51361 12.3386 3.50392 10.2909 4.10857C7.85225 4.82864 5.7403 6.3751 4.31751 8.48248C2.89473 10.5899 2.24983 13.1268 2.49352 15.6579C2.73719 18.1888 3.85426 20.5562 5.65298 22.3534C7.4517 24.1506 9.81989 25.2656 12.3511 25.5073C14.8824 25.7488 17.4187 25.1019 19.5249 23.6773C21.6311 22.2528 23.1759 20.1396 23.8939 17.7004C24.4969 15.6521 24.4854 13.4813 23.875 11.4534C23.6813 10.8096 23.9652 10.0939 24.5835 9.82988Z" fill="#FF5112"/>
<path d="M16.6412 18.4093C16.1374 18.4093 15.6928 18.3023 15.3075 18.0883C14.9222 17.8709 14.6209 17.5696 14.4036 17.1843C14.1895 16.799 14.0825 16.3545 14.0825 15.8506V13.5587C14.0825 13.0549 14.1895 12.6103 14.4036 12.225C14.6209 11.8397 14.9222 11.5401 15.3075 11.326C15.6928 11.1087 16.1374 11 16.6412 11C17.145 11 17.588 11.1087 17.9699 11.326C18.3552 11.5401 18.6565 11.8397 18.8739 12.225C19.0912 12.6103 19.1999 13.0549 19.1999 13.5587V15.8506C19.1999 16.3545 19.0912 16.799 18.8739 17.1843C18.6565 17.5696 18.3552 17.8709 17.9699 18.0883C17.588 18.3023 17.145 18.4093 16.6412 18.4093ZM16.6412 17.2782C16.8915 17.2782 17.1187 17.2189 17.3229 17.1003C17.527 16.9785 17.6884 16.8171 17.8069 16.6163C17.9255 16.4121 17.9848 16.1849 17.9848 15.9346V13.4698C17.9848 13.2162 17.9255 12.989 17.8069 12.7881C17.6884 12.5839 17.527 12.4226 17.3229 12.304C17.1187 12.1822 16.8915 12.1213 16.6412 12.1213C16.3909 12.1213 16.1637 12.1822 15.9595 12.304C15.7554 12.4226 15.594 12.5839 15.4755 12.7881C15.3569 12.989 15.2976 13.2162 15.2976 13.4698V15.9346C15.2976 16.1849 15.3569 16.4121 15.4755 16.6163C15.594 16.8171 15.7554 16.9785 15.9595 17.1003C16.1637 17.2189 16.3909 17.2782 16.6412 17.2782Z" fill="#FF5112"/>
<path d="M8 18.2513V17.2139L11.0428 14.5021C11.2799 14.2914 11.4445 14.0922 11.5367 13.9045C11.6289 13.7168 11.675 13.5356 11.675 13.3611C11.675 13.124 11.624 12.9133 11.5219 12.7288C11.4198 12.5411 11.2782 12.393 11.0971 12.2843C10.9193 12.1756 10.7135 12.1213 10.4797 12.1213C10.2327 12.1213 10.0137 12.1789 9.82269 12.2942C9.63499 12.4061 9.48845 12.556 9.38307 12.7437C9.2777 12.9314 9.2283 13.1339 9.23489 13.3512H8.00988C8.00988 12.877 8.11526 12.4638 8.32601 12.1114C8.54006 11.759 8.83314 11.4857 9.20525 11.2914C9.58066 11.0971 10.0137 11 10.5044 11C10.9588 11 11.3671 11.1021 11.7294 11.3063C12.0916 11.5071 12.3764 11.787 12.5839 12.146C12.7914 12.5016 12.8951 12.9116 12.8951 13.3759C12.8951 13.7151 12.849 14 12.7568 14.2305C12.6646 14.461 12.5263 14.6734 12.3419 14.8677C12.1607 15.062 11.9352 15.2776 11.6651 15.5147L9.50656 17.4264L9.39789 17.13H12.8951V18.2513H8Z" fill="#FF5112"/>
</svg>
