<svg width="22" height="22" viewBox="0 0 22 22" fill="none" xmlns="http://www.w3.org/2000/svg">
<path fill-rule="evenodd" clip-rule="evenodd" d="M18.3335 11.0002C18.3335 10.4939 17.9231 10.0835 17.4168 10.0835H4.5835C4.07723 10.0835 3.66683 10.4939 3.66683 11.0002C3.66683 11.5064 4.07723 11.9168 4.5835 11.9168H17.4168C17.9231 11.9168 18.3335 11.5064 18.3335 11.0002Z" fill="#FF5112"/>
<path fill-rule="evenodd" clip-rule="evenodd" d="M3.9354 10.352C3.57742 10.71 3.57742 11.2904 3.9354 11.6483L9.4354 17.1483C9.79338 17.5063 10.3738 17.5063 10.7318 17.1483C11.0897 16.7904 11.0897 16.21 10.7318 15.852L5.23176 10.352C4.87378 9.994 4.29338 9.994 3.9354 10.352Z" fill="#FF5112"/>
<path fill-rule="evenodd" clip-rule="evenodd" d="M10.7318 4.85198C10.3738 4.494 9.79338 4.494 9.4354 4.85198L3.9354 10.352C3.57742 10.71 3.57742 11.2904 3.9354 11.6483C4.29338 12.0063 4.87378 12.0063 5.23176 11.6483L10.7318 6.14834C11.0897 5.79036 11.0897 5.20996 10.7318 4.85198Z" fill="#FF5112"/>
</svg>
