<svg width="320" height="82" viewBox="0 0 320 82" fill="none" xmlns="http://www.w3.org/2000/svg">
<path fill-rule="evenodd" clip-rule="evenodd" d="M18.1634 50.8341L1.65122 34.3808V75.5434L18.1045 59.0902V50.8341H18.1634ZM19.8147 50.1854V59.7978L0 79.6125V30.3117L19.8147 50.1854Z" fill="#FF5112"/>
<path fill-rule="evenodd" clip-rule="evenodd" d="M28.3657 79.6125L79.8484 28.1297V4.77674L5.07163 79.6125H28.3657ZM29.0733 81.2637L81.5586 28.7784V0.766632L1.06152 81.2637H29.0733Z" fill="#FF5112"/>
<path fill-rule="evenodd" clip-rule="evenodd" d="M79.8484 35.5602L63.3951 52.0135V79.6125H79.8484V35.5602ZM81.5586 31.4912V81.2637H61.7439V51.3058L81.5586 31.4912Z" fill="#FF5112"/>
<path fill-rule="evenodd" clip-rule="evenodd" d="M26.0069 51.2468L37.6834 39.5704L1.71031 3.5973V26.8913L26.0069 51.2468ZM26.0069 53.6057L0.059082 27.658V0H0.47189L40.0422 39.5704L26.0069 53.6057Z" fill="#FF5112"/>
<path d="M127.419 6.28104L121.27 20.5431C120.502 22.3366 119.733 23.6176 119.135 24.4716C118.538 25.3256 117.769 25.9234 116.915 26.265C116.061 26.6066 114.951 26.8628 113.413 27.0336H113.157C112.986 26.5212 112.816 25.838 112.73 24.984L112.901 24.7278C114.097 24.557 114.951 24.3862 115.634 24.2154C116.317 24.0446 116.83 23.703 117.257 23.3614C117.684 23.0198 118.111 22.422 118.452 21.7387L110.595 6.19565H113.413L114.097 8.07448L119.392 18.9205H119.733L124.174 7.90368L124.772 6.19565H127.419V6.28104Z" fill="white"/>
<path d="M133.227 21.8241L133.312 26.8628H130.921L131.006 22.0803L130.921 10.8927H133.312L133.227 21.8241ZM136.045 18.3227C138.351 21.1409 140.742 23.7884 143.304 26.265L143.219 26.6066C142.536 26.8628 141.767 26.9482 140.913 27.119L140.486 26.9482C137.753 23.8738 135.362 21.0555 133.398 18.4935V18.3227L138.949 12.2592L139.973 10.8073H142.792L136.045 18.3227Z" fill="white"/>
<path d="M151.844 19.4329C153.979 19.0913 155.004 17.8103 155.004 15.7606C155.004 14.7358 154.748 13.9672 154.15 13.5402C153.552 13.0278 152.698 12.7716 151.588 12.7716H149.111V19.4329H151.844ZM152.271 10.8073C153.979 10.8073 155.26 11.2343 156.2 12.003C157.139 12.857 157.566 13.9672 157.566 15.5044C157.566 17.2979 156.968 18.7497 155.858 19.6891C154.748 20.7139 153.125 21.2263 151.161 21.2263H149.197V21.7387L149.282 26.7774H146.891L146.976 21.9949L146.891 10.8073H152.271Z" fill="white"/>
<path d="M167.558 20.7139L164.911 13.1132H164.74L161.836 20.7139H164.655H167.558ZM171.828 26.7774H169.437L169.01 25.0694L168.156 22.6782H164.313H160.897L160.043 24.8986L159.616 26.7774H157.225L163.374 10.8073H166.106L171.828 26.7774Z" fill="white"/>
<path d="M177.636 21.8241L177.721 26.8628H175.33L175.415 22.0803L175.33 10.8927H177.721L177.636 21.8241ZM178.49 4.573C178.917 4.573 179.258 4.65841 179.429 4.91461C179.685 5.17082 179.771 5.51242 179.771 5.85402C179.771 6.36643 179.685 6.70804 179.429 6.96425C179.173 7.22045 178.831 7.39126 178.404 7.39126C177.977 7.39126 177.636 7.30586 177.379 7.04965C177.123 6.79345 177.038 6.45184 177.038 6.02484C177.038 5.59783 177.209 5.25621 177.465 5.00001C177.636 4.7438 178.063 4.573 178.49 4.573ZM174.988 4.573C175.415 4.573 175.757 4.65841 175.928 4.91461C176.184 5.17082 176.269 5.51242 176.269 5.85402C176.269 6.36643 176.098 6.70804 175.842 6.96425C175.586 7.22045 175.244 7.39126 174.817 7.39126C174.39 7.39126 174.049 7.30586 173.793 7.04965C173.536 6.79345 173.451 6.45184 173.451 6.02484C173.451 5.59783 173.622 5.25621 173.878 5.00001C174.134 4.7438 174.561 4.573 174.988 4.573Z" fill="white"/>
<path d="M197.022 21.8241L197.107 26.7774H194.716L194.801 21.9949V19.7745L186.09 19.8599L186.005 21.8241L186.09 26.7774H183.699L183.87 21.9949L183.699 10.8073H186.176L186.09 17.6395L190.446 17.7249L194.801 17.6395L194.716 10.8073H197.107L197.022 21.8241Z" fill="white"/>
<path d="M208.722 10.6365C210.515 10.6365 212.052 10.9781 213.333 11.7467L212.906 13.9672L212.65 14.0526C212.138 13.6256 211.455 13.284 210.771 13.0278C210.088 12.7716 209.32 12.6008 208.466 12.6008C206.843 12.6008 205.647 13.1132 204.879 14.138C204.025 15.1628 203.598 16.7 203.598 18.6643C203.598 20.7139 204.025 22.2511 204.879 23.276C205.733 24.3862 206.928 24.8986 208.466 24.8986C209.234 24.8986 210.003 24.7278 210.771 24.4716C211.54 24.2154 212.223 23.8738 212.906 23.3614L213.163 23.4468L212.906 25.6672C211.455 26.4358 209.917 26.8628 208.295 26.8628C205.903 26.8628 204.11 26.1796 202.829 24.7278C201.548 23.3614 200.95 21.3117 200.95 18.7497C200.95 16.1022 201.633 14.0526 202.914 12.6862C204.366 11.4051 206.245 10.6365 208.722 10.6365Z" fill="white"/>
<path d="M223.069 24.984C224.179 24.8132 225.033 24.557 225.546 23.9592C226.144 23.4468 226.4 22.6782 226.4 21.8241C226.4 20.8847 226.144 20.2015 225.546 19.6891C224.948 19.1767 224.179 18.9205 223.069 19.0059H220.251V21.7387L220.336 24.8986L223.069 24.984ZM223.923 17.2124C225.546 17.2124 226.827 17.5541 227.681 18.3227C228.535 19.0913 228.962 20.1161 228.962 21.4825C228.962 23.1906 228.364 24.4716 227.168 25.3256C225.973 26.265 224.265 26.692 222.13 26.692H217.86L217.945 21.9095L217.86 10.6365H220.336L220.251 17.1271H223.923V17.2124Z" fill="white"/>
<path d="M235.538 21.8241L235.623 26.8628H233.232L233.317 22.0803L233.232 10.8927H235.623L235.538 21.8241ZM238.441 18.3227C240.747 21.1409 243.139 23.7884 245.701 26.265L245.615 26.6066C244.932 26.8628 244.163 26.9482 243.309 27.119L242.882 26.9482C240.149 23.8738 237.758 21.0555 235.794 18.4935V18.3227L241.345 12.2592L242.37 10.8073H245.188L238.441 18.3227Z" fill="white"/>
<path d="M256.888 20.7139L254.241 13.1132H254.07L251.166 20.7139H253.985H256.888ZM261.158 26.7774H258.767L258.34 25.0694L257.486 22.6782H253.643H250.227L249.373 24.8986L248.946 26.7774H246.555L252.704 10.8073H255.436L261.158 26.7774Z" fill="white"/>
<path d="M132.031 53.0812H129.725L129.298 46.8468L128.188 36.5986H127.932L122.21 50.6899H120.16L114.694 36.5986H114.438L113.328 46.5906L112.816 53.0812H110.595L112.73 32.4994H115.719L116.744 35.6592L121.185 47.3593H121.441L126.053 35.4884L127.163 32.4994H130.067L132.031 53.0812Z" fill="white"/>
<path d="M147.233 51.0315L147.489 51.2023L147.233 53.0812H137.497L137.582 48.2987L137.497 37.1111H147.318L147.489 37.2819L147.233 39.1607L143.219 38.9899L139.888 39.0753V43.8578L143.048 43.9432L145.781 43.8578L145.952 44.0286L145.781 45.9074L142.877 45.822L139.888 45.9074L139.803 48.0425L139.888 51.1169H142.963L147.233 51.0315Z" fill="white"/>
<path d="M157.737 51.2877C158.933 51.2023 159.787 50.8607 160.384 50.3483C160.982 49.8359 161.324 49.0673 161.324 48.2133C161.324 47.2739 161.068 46.5906 160.47 46.1636C159.872 45.6512 159.018 45.4804 157.908 45.4804H154.919V48.0425L155.004 51.2023L157.737 51.2877ZM158.591 43.687C160.299 43.687 161.58 44.0286 162.52 44.7972C163.374 45.5658 163.886 46.5906 163.886 47.9571C163.886 49.5797 163.288 50.8607 162.007 51.7147C160.811 52.6542 159.018 53.0812 156.798 53.0812H152.442L152.528 48.2987L152.442 37.0257H163.032L163.117 37.2819L162.947 39.0753L158.762 38.9899H154.833V43.6016H158.591V43.687Z" fill="white"/>
<path d="M178.404 48.0425L178.49 53.0812H176.013L176.098 48.2987L176.013 38.9899H171.828L171.657 40.2709C171.316 43.5162 170.974 46.0782 170.547 47.8717C170.12 49.6651 169.608 51.0315 169.01 51.8855C168.412 52.7396 167.558 53.252 166.533 53.4228L165.85 53.5082L165.338 51.4585C166.192 51.2023 166.875 50.6899 167.387 49.9213C167.9 49.1527 168.327 48.0425 168.583 46.5052C168.925 44.968 169.181 42.7476 169.437 39.8439L169.693 37.1111V37.0257H178.404V48.0425Z" fill="white"/>
<path d="M194.204 51.0315L194.374 51.2023L194.204 53.0812H184.468L184.553 48.2987L184.468 37.1111H194.289L194.374 37.2819L194.204 39.1607L190.19 38.9899L186.859 39.0753L186.774 43.8578L190.019 43.9432L192.752 43.8578L192.923 44.0286L192.752 45.9074L189.763 45.822L186.774 45.9074V48.0425V51.1169H189.933L194.204 51.0315Z" fill="white"/>
<path d="M203.427 51.3731C204.793 51.3731 205.903 51.1169 206.587 50.6899C207.355 50.1775 207.697 49.4943 207.697 48.5549C207.697 47.7863 207.441 47.1884 206.928 46.7614C206.416 46.3344 205.647 46.0782 204.622 45.9074H201.463V48.1279L201.548 51.2877C202.146 51.2877 202.829 51.3731 203.427 51.3731ZM206.672 41.2103C206.672 40.4417 206.416 39.8439 205.903 39.5023C205.391 39.1607 204.537 38.9899 203.427 38.9899H201.463V43.9432L204.281 44.0286C205.049 43.8578 205.647 43.5162 206.074 43.0892C206.501 42.6622 206.672 42.0643 206.672 41.2103ZM206.672 44.7972C209.063 45.3096 210.259 46.5052 210.259 48.5549C210.259 50.0921 209.661 51.2877 208.466 52.0563C207.27 52.825 205.476 53.252 203.171 53.252C201.804 53.252 200.438 53.252 199.157 53.1666L199.242 48.3841L199.157 37.1965H204.195C205.818 37.1965 207.014 37.5381 207.953 38.2213C208.807 38.9045 209.32 39.8439 209.32 41.1249C209.32 42.0643 209.063 42.833 208.636 43.4308C208.124 43.9432 207.441 44.4556 206.672 44.7972Z" fill="white"/>
<path d="M222.386 47.0176L219.738 39.4169H219.568L216.664 47.0176H219.482H222.386ZM226.741 53.0812H224.35L223.923 51.3731L223.069 48.9819H219.226H215.81L214.956 51.2023L214.529 53.0812H212.223L218.372 37.1111H221.105L226.741 53.0812Z" fill="white"/>
<path d="M256.461 53.0812H254.155L253.643 46.8468L252.618 36.5986H252.362L246.64 50.6899H244.505L239.125 36.5986H238.868L237.758 46.5906L237.246 53.0812H235.025L237.16 32.4994H240.064L241.174 35.6592L245.615 47.3593H245.786L250.483 35.4884L251.593 32.4994H254.412L256.461 53.0812Z" fill="white"/>
<path d="M269.699 47.0176L267.051 39.4169H266.88L263.977 47.0176H266.795H269.699ZM273.969 53.0812H271.577L271.15 51.3731L270.296 48.9819H266.453H263.037L262.183 51.2023L261.756 53.0812H259.365L265.514 37.1111H268.247L273.969 53.0812Z" fill="white"/>
<path d="M282.594 45.6512C284.729 45.3096 285.754 44.0286 285.754 41.9789C285.754 40.9541 285.498 40.1855 284.9 39.7585C284.302 39.2461 283.448 38.9899 282.338 38.9899H279.861V45.6512H282.594ZM283.021 37.0257C284.729 37.0257 286.01 37.4527 286.95 38.2213C287.889 39.0753 288.316 40.1855 288.316 41.7227C288.316 43.5162 287.718 44.968 286.608 45.9074C285.498 46.9322 283.875 47.4447 281.911 47.4447H279.947V47.9571L280.032 52.9958H277.641L277.726 48.2133L277.641 37.0257H283.021Z" fill="white"/>
<path d="M294.38 48.0425L294.465 53.0812H292.074L292.159 48.2987L292.074 37.1111H294.465L294.38 48.0425ZM297.283 44.541C299.589 47.3592 301.98 50.0067 304.542 52.4833L304.457 52.9104C303.774 53.1666 303.005 53.252 302.151 53.4228L301.724 53.252C298.991 50.1775 296.6 47.3593 294.636 44.7972V44.6264L300.187 38.5629L301.212 37.1111H304.03L297.283 44.541Z" fill="white"/>
<path d="M315.73 47.0176L313.083 39.4169H312.912L310.008 47.0176H312.826H315.73ZM320 53.0812H317.609L317.182 51.3731L316.328 48.9819H312.485H309.069L308.215 51.2023L307.788 53.0812H305.396L311.545 37.1111H314.278L320 53.0812Z" fill="white"/>
<path d="M116.403 74.0046L116.488 76.5666H115.463V74.09V69.0513H111.62V74.0046V76.5666H110.595L110.681 74.09L110.595 68.1973H116.488L116.403 74.0046Z" fill="white"/>
<path d="M121.697 72.8089C122.21 72.7235 122.637 72.4673 122.893 72.1257C123.149 71.7841 123.32 71.2717 123.32 70.7593C123.32 69.6491 122.722 69.1367 121.612 69.0513H120.331V72.7236L121.697 72.8089ZM121.868 68.1973C122.722 68.1973 123.32 68.3681 123.747 68.7951C124.174 69.2221 124.43 69.8199 124.43 70.5885C124.43 71.5279 124.174 72.2965 123.576 72.8089C123.064 73.3213 122.295 73.5776 121.27 73.5776H120.246V73.9192L120.331 76.5666H119.306L119.392 74.0046L119.306 68.1118L121.868 68.1973Z" fill="white"/>
<path d="M129.298 68.9659C127.59 68.9659 126.651 70.0761 126.651 72.3819C126.651 73.5776 126.822 74.4316 127.249 75.0294C127.676 75.6272 128.273 75.8834 129.127 75.8834C130.835 75.8834 131.775 74.7732 131.775 72.4673C131.775 71.2717 131.604 70.4177 131.177 69.8199C130.835 69.2221 130.152 68.9659 129.298 68.9659ZM129.384 68.1118C130.494 68.1118 131.433 68.4535 132.031 69.1367C132.629 69.8199 132.97 70.8447 132.97 72.2111C132.97 73.663 132.629 74.7732 131.946 75.5418C131.262 76.3104 130.323 76.7374 129.127 76.7374C128.017 76.7374 127.078 76.3958 126.48 75.6272C125.882 74.8586 125.541 73.8338 125.541 72.4673C125.541 71.1009 125.882 69.9907 126.48 69.2221C127.249 68.5389 128.188 68.1118 129.384 68.1118Z" fill="white"/>
<path d="M139.29 74.09V69.0513H137.155L137.07 69.8199C136.984 71.0155 136.814 72.0403 136.728 72.8089C136.557 73.5775 136.472 74.1754 136.216 74.6878C136.045 75.2002 135.789 75.5418 135.447 75.798H139.205L139.29 74.09ZM141.425 78.1893L140.657 78.2747L140.486 76.652H134.679L134.508 78.1893L133.654 78.2747V75.798H134.337C134.679 75.5418 134.935 75.2856 135.191 74.7732C135.447 74.3462 135.618 73.7484 135.703 72.8943C135.874 72.1257 135.96 71.0155 136.045 69.5637L136.216 68.1973H140.315V74.0046V75.798H141.425V78.1893Z" fill="white"/>
<path d="M147.318 73.4068L145.952 69.3075H145.866L144.329 73.4068H145.781H147.318ZM149.368 76.5666H148.257L148.087 75.7126L147.574 74.2608H145.695H143.987L143.475 75.6272L143.304 76.4812H142.279L145.354 68.1118H146.549L149.368 76.5666Z" fill="white"/>
<path d="M158.933 76.652C157.566 75.0294 156.456 73.4922 155.602 72.2111V72.1257L158.164 68.9659L158.677 68.1973H159.787L156.627 72.1257C157.652 73.5776 158.847 75.0294 160.043 76.3958V76.5666C159.787 76.652 159.445 76.7374 159.104 76.7374L158.933 76.652ZM154.406 74.09V68.1973H155.431V74.0046V76.652H154.406V74.09ZM150.82 76.7374C150.478 76.652 150.136 76.5666 149.88 76.5666V76.3958C151.076 75.0294 152.186 73.663 153.296 72.1257L150.136 68.1973H151.247L151.759 68.9659L154.406 72.1257V72.2111C153.467 73.5776 152.357 75.0294 151.076 76.652L150.82 76.7374Z" fill="white"/>
<path d="M166.362 75.8834C166.96 75.798 167.473 75.6272 167.729 75.371C168.07 75.0294 168.156 74.6878 168.156 74.1754C168.156 73.663 167.985 73.3214 167.729 72.9797C167.387 72.7235 166.96 72.5527 166.448 72.5527H164.911V74.0046V75.798L166.362 75.8834ZM166.789 71.7841C167.643 71.7841 168.241 71.9549 168.668 72.3819C169.095 72.7235 169.351 73.3214 169.351 74.0046C169.351 74.8586 169.095 75.5418 168.497 75.9688C167.9 76.3958 167.046 76.652 166.021 76.652H163.971L164.057 74.09L163.971 68.1973H169.01L169.095 68.2827L169.01 69.0513H166.96H164.996V71.7841H166.789Z" fill="white"/>
<path d="M177.123 68.1973L174.646 74.0046C174.305 74.6878 174.049 75.2856 173.792 75.6272C173.536 75.9688 173.195 76.225 172.853 76.3958C172.511 76.5666 171.999 76.652 171.401 76.7374H171.316C171.23 76.4812 171.145 76.225 171.145 75.8834L171.23 75.798C171.743 75.7126 172.084 75.6272 172.341 75.5418C172.597 75.4564 172.853 75.371 173.024 75.2002C173.195 75.0294 173.365 74.8586 173.536 74.517L170.291 68.1973H171.401L171.657 68.9659L173.792 73.4068H173.963L175.757 68.9659L176.013 68.2827H177.123V68.1973Z" fill="white"/>
<path d="M182.589 74.09V69.0513H180.454L180.368 69.8199C180.283 71.0155 180.112 72.0403 180.027 72.8089C179.856 73.5775 179.771 74.1754 179.514 74.6878C179.344 75.2002 179.087 75.5418 178.746 75.798H182.503L182.589 74.09ZM184.724 78.1893L183.955 78.2747L183.785 76.652H177.977L177.806 78.1893L176.952 78.2747V75.798H177.636C177.977 75.5418 178.233 75.2856 178.49 74.7732C178.746 74.3462 178.917 73.7484 179.002 72.8943C179.173 72.1257 179.258 71.0155 179.344 69.5637L179.514 68.1973H183.528V74.0046V75.798H184.639V78.1893H184.724Z" fill="white"/>
<path d="M187.713 74.0046L187.798 76.5666H186.688L186.773 74.09L186.688 68.1973H187.798L187.713 74.0046Z" fill="white"/>
<path d="M192.581 75.798C193.264 75.798 193.862 75.6272 194.203 75.371C194.545 75.1148 194.801 74.6878 194.801 74.1754C194.801 73.3214 194.289 72.809 193.178 72.7236H191.556V73.9192V75.7126C191.983 75.798 192.239 75.798 192.581 75.798ZM194.289 70.3323C194.289 69.9053 194.203 69.5637 193.947 69.3075C193.691 69.1367 193.264 68.9659 192.751 68.9659H191.727V71.7841H193.178C193.862 71.6987 194.289 71.1863 194.289 70.3323ZM194.118 72.2111C195.314 72.4673 195.911 73.1506 195.911 74.2608C195.911 75.0294 195.655 75.6272 195.057 76.0542C194.46 76.4812 193.606 76.652 192.495 76.652C191.727 76.652 191.129 76.652 190.616 76.5666L190.702 74.0046L190.616 68.1118H192.922C193.691 68.1118 194.289 68.2827 194.716 68.6243C195.143 68.9659 195.314 69.4783 195.314 70.1615C195.314 70.6739 195.228 71.0155 194.972 71.3571C194.801 71.7841 194.46 72.0403 194.118 72.2111Z" fill="white"/>
<path d="M202.744 75.798L202.658 76.5666H197.961L198.047 74.09L197.961 68.1973H202.658L202.744 68.2827L202.658 69.1367L200.694 69.0513L199.071 69.1367L198.986 71.8695H200.609H201.975L202.06 71.9549L201.975 72.7236H200.523H198.986V74.0046V75.7126H200.694H202.658L202.744 75.798Z" fill="white"/>
<path d="M209.832 74.0046V76.652H208.807V74.09V69.0513H206.672L206.587 69.8199C206.416 71.5279 206.245 72.8089 206.074 73.8338C205.904 74.7732 205.647 75.4564 205.306 75.9688C205.05 76.3958 204.623 76.7374 204.196 76.8228H203.854L203.683 75.9688C204.11 75.798 204.452 75.5418 204.708 75.1148C204.964 74.6878 205.135 74.09 205.306 73.2359C205.477 72.3819 205.562 71.1863 205.733 69.6491L205.904 68.2827H210.003L209.832 74.0046Z" fill="white"/>
<path d="M215.041 75.798C215.639 75.7126 216.066 75.5418 216.322 75.2856C216.664 74.944 216.749 74.6024 216.749 74.09C216.749 73.5776 216.579 73.1505 216.322 72.8943C216.066 72.6381 215.639 72.4673 215.041 72.4673H213.59V74.0046V75.798H215.041ZM215.468 71.6987C216.237 71.6987 216.92 71.8695 217.262 72.2965C217.689 72.6382 217.86 73.236 217.86 73.9192C217.86 74.7732 217.603 75.4564 217.006 75.8834C216.408 76.3104 215.639 76.5666 214.614 76.5666H212.65L212.736 74.0046L212.65 68.1118H213.675V71.6133H215.468V71.6987Z" fill="white"/>
<path d="M226.229 74.0046V76.5666H225.204L225.29 74.09L225.204 72.8089H222.898H220.763V74.0046L220.849 76.5666H219.739L219.824 74.09L219.739 68.1973H220.849L220.763 71.9549H222.984H225.204V68.1973H226.229V74.0046Z" fill="white"/>
<path d="M229.133 74.09L229.047 68.2827L230.072 68.1973V74.944H230.158L234.428 68.1973H235.538V74.0046V76.5666H234.513V74.09V69.9053H234.428L230.158 76.5666H229.047L229.133 74.09Z" fill="white"/>
<path d="M241.516 72.2111L244.334 76.5666H243.053L242.712 75.8834L240.747 73.0652L238.783 75.9688L238.442 76.5666H237.331L240.15 72.3819L237.417 68.1973H238.698L239.039 68.8805L240.833 71.5279L242.626 68.8805L242.968 68.1973H244.163L241.516 72.2111Z" fill="white"/>
<path d="M256.632 76.5666H255.693L255.436 74.0046L255.009 69.9053H254.924L252.618 75.6272H251.764L249.544 69.9053H249.458L248.946 74.0046L248.775 76.5666H247.836L248.775 68.1973H249.971L250.398 69.4783L252.191 74.2608H252.277L254.155 69.3929L254.582 68.1973H255.778L256.632 76.5666Z" fill="white"/>
<path d="M262.952 73.4068L261.585 69.3075H261.5L259.963 73.4068H261.415H262.952ZM265.001 76.5666H263.891L263.72 75.7126L263.208 74.2608H261.329H259.621L259.109 75.6272L258.938 76.4812H257.913L260.988 68.1118H262.183L265.001 76.5666Z" fill="white"/>
<path d="M270.638 68.2827L270.552 69.1367L269.101 69.0513H268.247L268.161 74.0046L268.247 76.5666H267.136L267.222 74.09L267.136 69.0513H266.282L264.831 69.1367L264.745 69.0513L264.831 68.1973H270.552L270.638 68.2827Z" fill="white"/>
<path d="M276.958 75.798L276.872 76.5666H272.175L272.26 74.09L272.175 68.1973H276.872L276.958 68.2827L276.872 69.1367L274.908 69.0513L273.2 69.1367V71.8695H274.737H276.189L276.274 71.9549L276.189 72.7236H274.652H273.2V74.0046V75.7126H274.908H276.872L276.958 75.798Z" fill="white"/>
<path d="M281.484 72.8089C281.996 72.7235 282.423 72.4673 282.68 72.1257C282.936 71.7841 283.107 71.2717 283.107 70.7593C283.107 69.6491 282.509 69.1367 281.399 69.0513H280.118V72.7236L281.484 72.8089ZM281.655 68.1973C282.509 68.1973 283.107 68.3681 283.534 68.7951C283.961 69.2221 284.217 69.8199 284.217 70.5885C284.217 71.5279 283.961 72.2965 283.363 72.8089C282.85 73.3213 282.082 73.5776 281.057 73.5776H280.032V73.9192L280.118 76.5666H279.093L279.178 74.0046L279.093 68.1118L281.655 68.1973Z" fill="white"/>
<path d="M287.035 74.0046L287.121 76.5666H286.096V74.09V68.1973H287.121L287.035 74.0046Z" fill="white"/>
<path d="M293.867 73.4068L292.501 69.3075H292.415L290.878 73.4068H292.33H293.867ZM295.917 76.5666H294.806L294.636 75.7126L294.123 74.2608H292.244H290.536L290.024 75.6272L289.853 76.4812H288.828L291.903 68.1118H293.098L295.917 76.5666Z" fill="white"/>
<path d="M302.578 74.0046V76.652H301.553V74.09V69.0513H299.418L299.333 69.8199C299.162 71.5279 298.991 72.8089 298.82 73.8338C298.65 74.7732 298.393 75.4564 298.052 75.9688C297.796 76.3958 297.369 76.7374 296.942 76.8228H296.6L296.429 75.9688C296.856 75.798 297.198 75.5418 297.454 75.1148C297.71 74.6878 297.881 74.09 298.052 73.2359C298.223 72.3819 298.308 71.1863 298.479 69.6491L298.65 68.2827H302.749L302.578 74.0046Z" fill="white"/>
<path d="M306.421 74.0046L306.507 76.5666H305.396L305.482 74.09L305.396 68.1973H306.507L306.421 74.0046Z" fill="white"/>
<path d="M311.289 75.798C311.972 75.798 312.57 75.6272 312.912 75.371C313.253 75.1148 313.51 74.6878 313.51 74.1754C313.51 73.3214 312.997 72.809 311.887 72.7236H310.264V73.9192V75.7126C310.691 75.798 311.033 75.798 311.289 75.798ZM312.997 70.3323C312.997 69.9053 312.912 69.5637 312.656 69.3075C312.399 69.1367 311.972 68.9659 311.46 68.9659H310.435V71.7841H311.887C312.57 71.6987 312.997 71.1863 312.997 70.3323ZM312.826 72.2111C314.022 72.4673 314.62 73.1506 314.62 74.2608C314.62 75.0294 314.364 75.6272 313.766 76.0542C313.168 76.4812 312.314 76.652 311.204 76.652C310.435 76.652 309.837 76.652 309.325 76.5666L309.41 74.0046L309.325 68.1118H311.631C312.399 68.1118 312.997 68.2827 313.424 68.6243C313.851 68.9659 314.022 69.4783 314.022 70.1615C314.022 70.6739 313.937 71.0155 313.68 71.3571C313.51 71.7841 313.168 72.0403 312.826 72.2111Z" fill="white"/>
</svg>
