<svg width="254" height="254" viewBox="0 0 254 254" fill="none" xmlns="http://www.w3.org/2000/svg">
<path d="M218.591 127.484L235.809 128.949L235.38 133.994C235.362 134.202 235.33 134.532 235.284 134.986C235.237 135.439 235.164 135.871 235.065 136.28C234.774 137.532 234.199 138.539 233.339 139.3C232.479 140.07 231.422 140.607 230.167 140.909C228.921 141.213 227.565 141.302 226.098 141.178C224.623 141.052 223.293 140.734 222.108 140.224C220.931 139.714 219.984 139.008 219.266 138.104C218.555 137.208 218.162 136.119 218.087 134.836C218.065 134.425 218.067 133.983 218.091 133.511C218.122 133.048 218.146 132.721 218.162 132.53L218.591 127.484ZM219.504 128.646L219.167 132.615C219.134 132.998 219.114 133.382 219.105 133.766C219.096 134.159 219.104 134.489 219.129 134.756C219.224 135.904 219.581 136.85 220.201 137.593C220.827 138.345 221.653 138.921 222.679 139.321C223.712 139.73 224.882 139.99 226.189 140.101C227.497 140.213 228.69 140.154 229.769 139.924C230.856 139.704 231.768 139.275 232.504 138.639C233.248 138.012 233.764 137.141 234.051 136.025C234.121 135.766 234.185 135.438 234.243 135.042C234.301 134.645 234.345 134.268 234.376 133.909L234.713 129.939L219.504 128.646Z" fill="white"/>
<path d="M216.964 144.01L233.659 148.467L232.019 154.611C231.976 154.774 231.923 154.938 231.863 155.104C231.809 155.272 231.736 155.455 231.641 155.653C231.303 156.424 230.824 157.041 230.203 157.505C229.588 157.979 228.887 158.28 228.099 158.409C227.317 158.548 226.508 158.506 225.673 158.283C224.838 158.06 224.113 157.693 223.496 157.18C222.885 156.678 222.427 156.067 222.122 155.348C221.823 154.639 221.719 153.866 221.81 153.029C221.834 152.812 221.862 152.616 221.892 152.442C221.922 152.268 221.958 152.1 222.002 151.938L223.382 146.767L216.704 144.984L216.964 144.01ZM224.356 147.027L222.975 152.198C222.94 152.329 222.907 152.486 222.875 152.667C222.841 152.857 222.814 153.049 222.796 153.243C222.748 153.917 222.86 154.522 223.131 155.058C223.4 155.602 223.779 156.059 224.268 156.43C224.764 156.803 225.326 157.073 225.952 157.24C226.578 157.407 227.195 157.452 227.804 157.374C228.42 157.298 228.98 157.092 229.484 156.754C229.986 156.425 230.385 155.956 230.68 155.347C230.768 155.172 230.841 154.992 230.898 154.809C230.961 154.635 231.01 154.483 231.045 154.351L232.425 149.181L224.356 147.027Z" fill="white"/>
<path d="M212.673 158.993L228.486 165.961L224.615 174.746L223.692 174.339L227.157 166.477L220.634 163.602L217.75 170.147L216.828 169.741L219.712 163.196L212.267 159.915L212.673 158.993Z" fill="white"/>
<path d="M198.859 182.705C199.925 181.356 201.117 180.468 202.434 180.04C203.746 179.619 205.111 179.602 206.529 179.989C207.947 180.376 209.346 181.115 210.726 182.206C212.107 183.298 213.149 184.489 213.852 185.779C214.556 187.07 214.854 188.402 214.747 189.775C214.635 191.155 214.045 192.52 212.978 193.869C211.728 195.451 210.307 196.397 208.714 196.709C207.128 197.025 205.514 196.809 203.871 196.062L204.338 195.084C205.775 195.731 207.175 195.92 208.539 195.653C209.905 195.396 211.121 194.593 212.188 193.244C213.106 192.083 213.603 190.906 213.68 189.712C213.752 188.525 213.468 187.362 212.828 186.224C212.194 185.09 211.27 184.034 210.057 183.054C208.843 182.073 207.611 181.406 206.363 181.051C205.114 180.695 203.912 180.694 202.757 181.045C201.603 181.408 200.567 182.169 199.649 183.33C198.583 184.68 198.082 186.048 198.147 187.436C198.208 188.83 198.715 190.149 199.669 191.393L198.826 192.072C197.72 190.647 197.134 189.123 197.07 187.502C197.012 185.886 197.608 184.287 198.859 182.705Z" fill="white"/>
<path d="M193.197 190.32L199.926 207.434L199.117 208.149L182.963 199.362L183.773 198.647L199.498 207.203L198.959 207.68L192.388 191.035L193.197 190.32ZM194.37 195.273L195.006 195.992L188.387 201.84L187.751 201.12L194.37 195.273Z" fill="white"/>
<path d="M176.319 203.85L184.953 217.642L190.323 214.281L190.858 215.135L179.263 222.394L178.728 221.539L184.098 218.177L175.464 204.385L176.319 203.85Z" fill="white"/>
<path d="M169.166 208.401L169.969 226.772L168.971 227.185L156.549 213.627L157.547 213.214L169.639 226.415L168.974 226.691L168.168 208.815L169.166 208.401ZM168.666 213.466L169.033 214.353L160.873 217.733L160.506 216.846L168.666 213.466Z" fill="white"/>
<path d="M153.223 214.612L157.426 231.374L156.448 231.619L152.491 215.835L144.157 217.925L143.911 216.947L153.223 214.612Z" fill="white"/>
<path d="M135.453 217.622C137.167 217.483 138.63 217.75 139.84 218.422C141.043 219.095 141.986 220.082 142.669 221.383C143.353 222.684 143.765 224.211 143.908 225.966C144.05 227.72 143.889 229.294 143.424 230.688C142.96 232.082 142.188 233.208 141.11 234.067C140.024 234.925 138.624 235.424 136.909 235.563C135.195 235.702 133.737 235.436 132.534 234.763C131.324 234.09 130.377 233.104 129.694 231.803C129.01 230.502 128.597 228.974 128.455 227.22C128.312 225.466 128.473 223.892 128.938 222.497C129.403 221.103 130.178 219.977 131.264 219.118C132.343 218.26 133.739 217.761 135.453 217.622ZM135.535 218.627C134.06 218.747 132.859 219.185 131.933 219.943C131 220.709 130.335 221.71 129.938 222.946C129.54 224.182 129.405 225.578 129.531 227.133C129.657 228.688 130.016 230.043 130.608 231.199C131.2 232.363 132.018 233.243 133.062 233.841C134.097 234.439 135.353 234.678 136.828 234.559C138.303 234.439 139.504 234 140.429 233.243C141.347 232.486 142.004 231.486 142.401 230.242C142.798 229.005 142.942 227.609 142.831 226.053C142.721 224.497 142.37 223.141 141.779 221.985C141.187 220.829 140.369 219.948 139.325 219.343C138.273 218.746 137.01 218.507 135.535 218.627Z" fill="white"/>
<path d="M116.928 217.494C118.208 217.643 119.303 217.991 120.214 218.54C121.124 219.089 121.855 219.798 122.407 220.667C122.958 221.537 123.334 222.535 123.533 223.661C123.723 224.795 123.742 226.017 123.59 227.328C123.387 229.076 122.922 230.585 122.195 231.853C121.467 233.13 120.491 234.08 119.267 234.703C118.034 235.333 116.563 235.548 114.854 235.35C113.217 235.16 111.899 234.616 110.9 233.719C109.9 232.829 109.24 231.75 108.921 230.481L109.945 230.189C110.234 231.31 110.806 232.242 111.662 232.986C112.517 233.737 113.62 234.192 114.971 234.349C116.441 234.519 117.704 234.324 118.76 233.762C119.807 233.207 120.646 232.362 121.277 231.227C121.908 230.093 122.322 228.751 122.517 227.204C122.713 225.656 122.634 224.257 122.28 223.008C121.926 221.759 121.295 220.735 120.389 219.938C119.475 219.147 118.282 218.666 116.812 218.495C115.342 218.324 114.12 218.476 113.147 218.951C112.173 219.434 111.419 220.172 110.884 221.165C110.342 222.157 109.991 223.341 109.832 224.715L114.409 225.247L114.293 226.248L108.69 225.598C108.692 225.372 108.704 225.172 108.724 224.997C108.736 224.822 108.749 224.678 108.762 224.567C108.935 223.073 109.342 221.755 109.982 220.613C110.621 219.479 111.518 218.625 112.672 218.051C113.817 217.483 115.236 217.297 116.928 217.494Z" fill="white"/>
<path d="M98.9039 214.302L98.5064 215.229L88.2569 219.056C87.3266 219.398 86.648 219.812 86.2212 220.295C85.7914 220.787 85.4425 221.367 85.1745 222.035C84.8767 222.777 84.7876 223.526 84.9072 224.281C85.0268 225.035 85.3181 225.717 85.781 226.325C86.2439 226.933 86.8466 227.386 87.5891 227.684C88.3539 227.99 89.1152 228.08 89.8729 227.953C90.6307 227.826 91.3113 227.526 91.9149 227.053C92.5081 226.584 92.9491 225.989 93.238 225.269L94.1736 225.644C93.8073 226.558 93.251 227.3 92.5047 227.871C91.748 228.447 90.9053 228.807 89.9767 228.952C89.0481 229.096 88.1271 228.986 87.2139 228.619C86.2783 228.244 85.5279 227.676 84.9626 226.915C84.3944 226.161 84.0431 225.318 83.9088 224.385C83.7715 223.459 83.8815 222.551 84.2389 221.66C84.4831 221.051 84.7718 220.524 85.105 220.08C85.4308 219.634 85.8248 219.253 86.2871 218.938C86.742 218.621 87.283 218.347 87.9101 218.115L98.1285 214.301L98.1277 215.077L88.4381 211.19L88.8134 210.255L98.9039 214.302Z" fill="white"/>
<path d="M80.7359 205.546C81.557 206.043 82.1874 206.701 82.6272 207.519C83.0559 208.34 83.2704 209.214 83.2706 210.14C83.2598 211.069 83.0058 211.944 82.5084 212.765L78.6289 219.169C78.1315 219.991 77.4758 220.617 76.6618 221.05C75.8368 221.486 74.9633 221.7 74.0413 221.694C73.1084 221.69 72.2313 221.439 71.4102 220.942C70.5891 220.444 69.9642 219.785 69.5355 218.964C69.0957 218.146 68.8813 217.273 68.892 216.344C68.8918 215.418 69.1404 214.544 69.6377 213.723L73.5172 207.319C74.0146 206.497 74.6758 205.869 75.5008 205.433C76.3149 205.001 77.1884 204.786 78.1213 204.79C79.0433 204.797 79.9148 205.049 80.7359 205.546ZM80.2137 206.408C79.5499 206.006 78.8449 205.804 78.0985 205.8C77.3453 205.793 76.6387 205.964 75.9787 206.312C75.3145 206.668 74.7814 207.177 74.3794 207.841L70.4999 214.245C70.0979 214.909 69.8953 215.614 69.8921 216.361C69.8849 217.114 70.0589 217.822 70.4142 218.487C70.7626 219.147 71.2687 219.678 71.9325 220.08C72.5962 220.482 73.3047 220.686 74.0579 220.694C74.8042 220.697 75.5095 220.521 76.1736 220.165C76.8337 219.817 77.3647 219.311 77.7667 218.647L81.6462 212.242C82.0483 211.579 82.2529 210.87 82.2602 210.117C82.2633 209.371 82.0907 208.668 81.7422 208.008C81.3869 207.343 80.8774 206.81 80.2137 206.408Z" fill="white"/>
<path d="M72.2605 200.644L71.586 201.394L60.6499 201.719C59.659 201.744 58.8836 201.917 58.3238 202.238C57.7587 202.565 57.2418 203.001 56.773 203.548C56.2521 204.155 55.9268 204.835 55.7972 205.588C55.6676 206.341 55.7241 207.08 55.9667 207.805C56.2094 208.53 56.6343 209.152 57.2415 209.673C57.8669 210.21 58.5587 210.54 59.317 210.663C60.0754 210.787 60.8164 210.722 61.5402 210.468C62.2527 210.215 62.8616 209.794 63.3669 209.205L64.132 209.861C63.4912 210.608 62.7257 211.132 61.8353 211.432C60.9336 211.734 60.0198 211.804 59.094 211.642C58.1683 211.48 57.3319 211.079 56.5851 210.438C55.8201 209.782 55.2924 209.002 55.0021 208.1C54.7066 207.203 54.6454 206.292 54.8185 205.365C54.9864 204.445 55.3829 203.62 56.008 202.891C56.4351 202.394 56.8778 201.988 57.3361 201.675C57.7883 201.357 58.2839 201.123 58.8228 200.974C59.3557 200.82 59.9562 200.734 60.6243 200.717L71.5265 200.394L71.2763 201.128L63.3527 194.33L64.009 193.565L72.2605 200.644Z" fill="white"/>
<path d="M55.887 184.713L53.0742 187.073L58.4583 193.489L57.6861 194.137L44.2082 197.677L43.4985 196.831L56.9765 193.291L52.302 187.721L48.1655 191.192L47.5175 190.42L51.6541 186.949L50.3273 185.368L51.0995 184.72L52.4262 186.301L55.2391 183.94L55.887 184.713Z" fill="white"/>
<path d="M33.696 166.934L33.4319 167.912L30.245 167.064L30.4342 170.337L29.4264 170.393L29.2372 167.12L26.172 168.31L25.8073 167.37L28.8725 166.18L26.8039 163.636L27.586 162.998L29.6546 165.542L31.4434 162.788L32.298 163.332L30.5092 166.086L33.696 166.934Z" fill="white"/>
<path d="M35.0386 128.809L17.7875 127.81L18.0804 122.754C18.0925 122.547 18.1157 122.215 18.15 121.761C18.1844 121.306 18.2455 120.873 18.3335 120.461C18.5908 119.202 19.1388 118.18 19.9776 117.395C20.8169 116.602 21.8593 116.038 23.1048 115.701C24.3424 115.364 25.6959 115.238 27.1655 115.323C28.643 115.409 29.9809 115.691 31.1793 116.169C32.3697 116.647 33.3359 117.328 34.078 118.212C34.8125 119.088 35.2349 120.166 35.345 121.447C35.3773 121.857 35.3878 122.299 35.3764 122.771C35.3576 123.234 35.3426 123.562 35.3315 123.754L35.0386 128.809ZM34.0947 127.673L34.3252 123.695C34.3474 123.312 34.3576 122.928 34.3559 122.543C34.3546 122.151 34.3376 121.821 34.305 121.555C34.179 120.409 33.7965 119.474 33.1574 118.748C32.5108 118.013 31.6695 117.459 30.6333 117.087C29.5896 116.706 28.4128 116.477 27.103 116.401C25.7932 116.326 24.6019 116.417 23.5292 116.675C22.4489 116.925 21.5492 117.378 20.8301 118.033C20.1035 118.68 19.6114 119.565 19.3541 120.688C19.2909 120.949 19.2357 121.279 19.1886 121.677C19.1415 122.074 19.1076 122.453 19.0867 122.813L18.8563 126.79L34.0947 127.673Z" fill="white"/>
<path d="M36.1514 112.591L19.3282 108.645L20.7808 102.453C20.8192 102.289 20.8663 102.124 20.9221 101.956C20.97 101.786 21.0382 101.601 21.1264 101.4C21.4411 100.619 21.9015 99.9875 22.5077 99.5052C23.1079 99.0133 23.7999 98.6908 24.5835 98.5378C25.3612 98.3751 26.1707 98.3924 27.0118 98.5898C27.853 98.7871 28.5896 99.1325 29.2216 99.6259C29.8477 100.11 30.324 100.706 30.6506 101.416C30.9713 102.115 31.0989 102.885 31.0335 103.724C31.0153 103.942 30.9939 104.138 30.9693 104.313C30.9446 104.488 30.9131 104.657 30.8748 104.821L29.6524 110.031L36.3817 111.61L36.1514 112.591ZM28.671 109.801L29.8934 104.591C29.9245 104.458 29.9532 104.301 29.9797 104.118C30.008 103.927 30.0284 103.735 30.0411 103.541C30.0682 102.865 29.9382 102.263 29.6511 101.736C29.3658 101.2 28.9731 100.755 28.4731 100.399C27.9654 100.042 27.396 99.7892 26.7652 99.6412C26.1343 99.4932 25.5159 99.4673 24.9099 99.5634C24.2961 99.6577 23.7425 99.8812 23.2489 100.234C22.7571 100.579 22.3731 101.06 22.0968 101.677C22.014 101.855 21.9468 102.036 21.8952 102.221C21.8376 102.397 21.7932 102.551 21.7622 102.683L20.5398 107.893L28.671 109.801Z" fill="white"/>
<path d="M39.9275 97.5681L23.9137 91.0753L27.5208 82.1788L28.4549 82.5575L25.2265 90.5199L31.8322 93.1982L34.5195 86.5703L35.4537 86.949L32.7664 93.5769L40.3062 96.634L39.9275 97.5681Z" fill="white"/>
<path d="M52.9291 73.4814C51.9022 74.8611 50.7367 75.7838 49.4328 76.2494C48.1337 76.7085 46.7699 76.7655 45.3414 76.4203C43.9129 76.0751 42.4928 75.3771 41.0809 74.3263C39.6691 73.2754 38.5928 72.1154 37.8522 70.8461C37.1115 69.5768 36.7747 68.254 36.8417 66.8777C36.9134 65.495 37.4628 64.1138 38.4897 62.7341C39.6934 61.1169 41.0866 60.1294 42.6693 59.7716C44.2456 59.409 45.8655 59.5775 47.5288 60.277L47.0908 61.2674C45.6358 60.6631 44.2305 60.5147 42.8748 60.822C41.5175 61.1182 40.3253 61.9562 39.2983 63.3359C38.4147 64.5232 37.9518 65.7145 37.9098 66.9098C37.8725 68.0988 38.1904 69.2528 38.8633 70.372C39.5297 71.4863 40.4839 72.5156 41.7258 73.4599C42.9676 74.4042 44.2179 75.0356 45.4767 75.3542C46.7355 75.6728 47.937 75.6396 49.0812 75.2546C50.2237 74.8585 51.2369 74.0668 52.1205 72.8795C53.1475 71.4997 53.608 70.1173 53.5022 68.732C53.4011 67.3404 52.8555 66.0368 51.8655 64.8212L52.6885 64.1174C53.836 65.51 54.4655 67.0157 54.577 68.6345C54.6821 70.2485 54.1328 71.8641 52.9291 73.4814Z" fill="white"/>
<path d="M58.2747 65.7002L51.0512 48.7899L51.8395 48.0516L68.2415 56.3648L67.4533 57.1031L51.4856 49.0078L52.011 48.5156L59.0629 64.9619L58.2747 65.7002ZM56.9583 60.784L56.302 60.0833L62.7481 54.0457L63.4043 54.7463L56.9583 60.784Z" fill="white"/>
<path d="M74.7436 51.6074L65.7086 38.0742L60.4391 41.5922L59.8794 40.7539L71.2569 33.1581L71.8165 33.9964L66.547 37.5145L75.582 51.0477L74.7436 51.6074Z" fill="white"/>
<path d="M81.9775 46.6849L80.6266 28.3461L81.6116 27.9032L94.4325 41.0851L93.4475 41.5279L80.9668 28.6931L81.6235 28.3978L82.9625 46.242L81.9775 46.6849ZM82.3261 41.6074L81.9324 40.7319L89.9877 37.1102L90.3814 37.9858L82.3261 41.6074Z" fill="white"/>
<path d="M97.69 39.9828L93.0439 23.3391L94.0148 23.0681L98.3898 38.7409L106.665 36.4307L106.936 37.4016L97.69 39.9828Z" fill="white"/>
<path d="M115.244 36.4503C113.534 36.6356 112.065 36.4085 110.837 35.7691C109.617 35.1288 108.647 34.1676 107.929 32.8855C107.211 31.6034 106.757 30.0875 106.567 28.3378C106.378 26.588 106.496 25.01 106.923 23.6038C107.35 22.1977 108.091 21.0512 109.146 20.1644C110.208 19.2768 111.595 18.7403 113.305 18.555C115.015 18.3697 116.48 18.5972 117.7 19.2375C118.928 19.8769 119.901 20.8377 120.619 22.1197C121.338 23.4018 121.791 24.9177 121.981 26.6675C122.171 28.4173 122.052 29.9952 121.625 31.4014C121.198 32.8076 120.453 33.9545 119.391 34.8421C118.336 35.7289 116.954 36.265 115.244 36.4503ZM115.135 35.4481C116.607 35.2887 117.795 34.8179 118.7 34.0359C119.612 33.245 120.25 32.2264 120.614 30.9799C120.978 29.7335 121.075 28.3348 120.907 26.7839C120.739 25.2329 120.344 23.8877 119.722 22.7481C119.098 21.6006 118.257 20.7422 117.198 20.173C116.146 19.603 114.885 19.3977 113.413 19.5571C111.942 19.7166 110.754 20.1873 109.849 20.9694C108.952 21.7506 108.322 22.7684 107.959 24.0228C107.595 25.2692 107.489 26.6688 107.641 28.2214C107.793 29.7741 108.18 31.1202 108.803 32.2598C109.425 33.3993 110.267 34.2577 111.327 34.8348C112.394 35.4031 113.664 35.6076 115.135 35.4481Z" fill="white"/>
<path d="M133.236 35.9508C131.953 35.8416 130.848 35.5268 129.92 35.0064C128.993 34.4859 128.241 33.7997 127.663 32.9476C127.085 32.0956 126.679 31.1096 126.445 29.9898C126.22 28.8626 126.163 27.6414 126.275 26.3262C126.424 24.5725 126.843 23.0505 127.53 21.7602C128.219 20.4618 129.165 19.4825 130.37 18.8222C131.583 18.1546 133.046 17.8937 134.76 18.0394C136.402 18.1791 137.736 18.682 138.762 19.5481C139.789 20.4062 140.482 21.4647 140.841 22.7236L139.826 23.0468C139.503 21.9354 138.902 21.0212 138.024 20.3042C137.146 19.5792 136.029 19.1591 134.674 19.0438C133.2 18.9184 131.943 19.1528 130.905 19.7469C129.876 20.3338 129.063 21.204 128.467 22.3577C127.871 23.5113 127.499 24.8647 127.351 26.4177C127.203 27.9707 127.325 29.3661 127.718 30.6038C128.11 31.8416 128.771 32.8452 129.702 33.6148C130.64 34.3771 131.847 34.821 133.322 34.9464C134.796 35.0718 136.013 34.8822 136.971 34.3776C137.93 33.865 138.661 33.1043 139.164 32.0953C139.676 31.087 139.99 29.8933 140.107 28.5143L135.516 28.1238L135.601 27.1194L141.221 27.5974C141.226 27.8226 141.221 28.0229 141.206 28.1983C141.199 28.3743 141.191 28.5182 141.181 28.6298C141.054 30.1283 140.688 31.4581 140.083 32.6191C139.479 33.772 138.61 34.6535 137.474 35.2634C136.347 35.8661 134.934 36.0952 133.236 35.9508Z" fill="white"/>
<path d="M151.738 38.5346L152.108 37.5965L162.238 33.4633C163.158 33.0933 163.824 32.66 164.236 32.1636C164.651 31.6596 164.982 31.0696 165.23 30.3936C165.505 29.6425 165.572 28.8915 165.43 28.1407C165.287 27.3898 164.976 26.7175 164.495 26.1236C164.014 25.5297 163.398 25.0951 162.647 24.8197C161.873 24.536 161.11 24.469 160.356 24.6187C159.602 24.7684 158.931 25.0889 158.342 25.5801C157.763 26.0665 157.34 26.6741 157.073 27.4026L156.127 27.0556C156.465 26.1317 156.999 25.3731 157.728 24.7798C158.467 24.1817 159.298 23.7964 160.222 23.6239C161.146 23.4514 162.07 23.5345 162.994 23.8733C163.94 24.2203 164.707 24.7657 165.295 25.5096C165.886 26.2459 166.262 27.0784 166.424 28.007C166.589 28.9281 166.507 29.8393 166.176 30.7406C165.95 31.3565 165.678 31.8913 165.358 32.345C165.046 32.8014 164.663 33.1937 164.211 33.5219C163.765 33.8529 163.233 34.1433 162.613 34.3932L152.514 38.5121L152.491 37.737L162.293 41.3311L161.946 42.2775L151.738 38.5346Z" fill="white"/>
<path d="M170.022 46.5922C169.187 46.1192 168.537 45.4803 168.073 44.6754C167.621 43.8675 167.381 43.0007 167.353 42.075C167.336 41.1463 167.565 40.2643 168.038 39.4289L171.727 32.9127C172.2 32.0773 172.837 31.4313 173.638 30.9746C174.45 30.5149 175.316 30.2748 176.238 30.2543C177.171 30.2307 178.055 30.4554 178.89 30.9284C179.726 31.4014 180.37 32.0418 180.822 32.8497C181.286 33.6546 181.526 34.5214 181.543 35.4501C181.57 36.3758 181.347 37.2563 180.874 38.0917L177.185 44.6079C176.712 45.4433 176.07 46.0908 175.258 46.5505C174.457 47.0072 173.59 47.2473 172.658 47.2709C171.736 47.2914 170.857 47.0652 170.022 46.5922ZM170.519 45.715C171.194 46.0973 171.905 46.2791 172.651 46.2602C173.404 46.2453 174.105 46.054 174.755 45.6863C175.408 45.3115 175.926 44.7865 176.308 44.1113L179.997 37.5951C180.38 36.9198 180.561 36.2091 180.542 35.463C180.528 34.7099 180.333 34.0067 179.958 33.3533C179.59 32.7038 179.069 32.1879 178.394 31.8056C177.718 31.4232 177.004 31.2395 176.251 31.2544C175.505 31.2733 174.805 31.4701 174.152 31.8448C173.502 32.2125 172.986 32.734 172.604 33.4093L168.915 39.9255C168.532 40.6008 168.349 41.3149 168.364 42.068C168.383 42.8142 168.576 43.512 168.944 44.1614C169.318 44.8148 169.843 45.3327 170.519 45.715Z" fill="white"/>
<path d="M178.857 51.2929L179.51 50.5242L190.432 49.8802C191.422 49.8266 192.192 49.6313 192.742 49.2944C193.297 48.9512 193.801 48.4996 194.254 47.9398C194.757 47.3177 195.062 46.6283 195.17 45.8718C195.277 45.1152 195.199 44.3782 194.936 43.661C194.672 42.9437 194.229 42.3335 193.607 41.8305C192.966 41.3124 192.265 41.0027 191.504 40.9013C190.742 40.7998 190.003 40.8866 189.287 41.1615C188.582 41.4352 187.986 41.8737 187.498 42.4771L186.714 41.8434C187.333 41.0782 188.083 40.5324 188.964 40.2059C189.857 39.8782 190.768 39.7817 191.698 39.9165C192.628 40.0513 193.476 40.428 194.241 41.0467C195.025 41.6805 195.575 42.4442 195.891 43.338C196.213 44.2255 196.301 45.1349 196.155 46.0662C196.014 46.9912 195.641 47.827 195.038 48.5735C194.625 49.0836 194.194 49.5018 193.745 49.8281C193.303 50.1594 192.814 50.4073 192.28 50.572C191.752 50.7416 191.154 50.8447 190.487 50.8812L179.598 51.5217L179.827 50.7807L187.945 57.3449L187.312 58.1287L178.857 51.2929Z" fill="white"/>
<path d="M195.808 66.7767L198.551 64.3355L192.982 58.0786L193.735 57.4085L207.104 53.4779L207.838 54.3026L194.469 58.2332L199.304 63.6654L203.337 60.0754L204.008 60.8283L199.974 64.4184L201.346 65.9602L200.593 66.6303L199.221 65.0885L196.478 67.5297L195.808 66.7767Z" fill="white"/>
<path d="M218.593 83.8587L218.828 82.8734L222.039 83.6261L221.752 80.3599L222.757 80.2733L223.044 83.5395L226.073 82.2586L226.465 83.187L223.437 84.4678L225.581 86.9487L224.818 87.61L222.674 85.1292L220.969 87.9353L220.098 87.4174L221.804 84.6113L218.593 83.8587Z" fill="white"/>
</svg>
